<svg width="687" height="682" viewBox="0 0 687 682" fill="none" xmlns="http://www.w3.org/2000/svg">
<path d="M558.048 0.0606689H129.024C57.9515 0.0606689 0.336182 23.292 0.336182 51.9494V629.571C0.336182 658.228 57.9515 681.46 129.024 681.46H558.048C629.12 681.46 686.736 658.228 686.736 629.571V51.9494C686.736 23.292 629.12 0.0606689 558.048 0.0606689Z" fill="#1F2034"/>
<path fill-rule="evenodd" clip-rule="evenodd" d="M274.119 274.879C276.985 275.879 280.718 276.946 287.385 277.613C294.052 278.279 303.652 278.546 312.519 279.213C321.385 279.879 329.518 280.946 339.785 282.346C350.052 283.746 362.452 285.48 375.652 287.68C388.852 289.879 402.852 292.546 414.786 294.88C426.719 297.213 436.585 299.212 444.052 300.746C451.519 302.279 456.586 303.346 460.386 303.813C464.186 304.279 466.719 304.146 467.919 302.813C469.119 301.48 468.986 298.946 466.719 295.013C464.452 291.08 460.052 285.746 456.053 279.946C452.052 274.146 448.452 267.88 446.586 264.613C444.719 261.346 444.586 261.08 444.719 260.813C444.852 260.547 445.253 260.28 449.053 259.68C452.852 259.08 460.052 258.146 469.186 257.146C478.32 256.147 489.386 255.079 499.986 254.013C510.586 252.946 520.719 251.879 531.186 251.013C541.653 250.146 552.453 249.48 560.12 248.88C567.786 248.28 572.32 247.746 574.987 247.146C577.653 246.546 578.453 245.88 578.786 244.747C579.119 243.613 578.986 242.013 577.653 240.08C576.32 238.147 573.786 235.879 571.053 232.146C568.319 228.413 565.386 223.213 561.652 217.346C557.919 211.479 553.386 204.946 549.786 199.346C546.186 193.746 543.519 189.079 541.186 185.679C538.852 182.279 536.853 180.146 534.786 178.88C532.719 177.613 530.586 177.212 524.119 177.813C517.652 178.412 506.852 180.013 492.719 182.013C478.586 184.013 461.119 186.412 447.252 188.68C433.385 190.946 423.119 193.079 416.719 194.213C410.319 195.347 407.786 195.48 405.919 194.213C404.052 192.946 402.852 190.28 400.985 186.013C399.119 181.746 396.586 175.88 395.052 172.346C393.519 168.813 392.985 167.613 391.852 166.746C390.719 165.88 388.986 165.346 387.319 165.146C385.653 164.946 384.052 165.079 382.186 165.946C380.319 166.812 378.186 168.413 369.719 173.879C361.253 179.346 346.452 188.679 335.319 196.546C324.186 204.412 316.719 210.812 309.386 217.612C302.053 224.412 294.853 231.612 288.519 238.679C282.186 245.746 276.719 252.679 273.453 257.346C270.186 262.013 269.119 264.413 268.453 266.479C267.786 268.546 267.519 270.279 268.386 271.613C269.253 272.946 271.252 273.879 274.119 274.88L274.119 274.879Z" fill="#FEFEFE"/>
<path fill-rule="evenodd" clip-rule="evenodd" d="M255.887 264.646C257.253 264.679 258.653 264.746 260.12 263.88C261.586 263.013 263.12 261.213 265.253 258.146C267.387 255.08 270.12 250.746 272.587 247.079C275.053 243.413 277.253 240.413 279.853 237.113C282.453 233.812 285.453 230.213 288.886 226.246C292.32 222.28 296.186 217.946 300.487 213.579C304.787 209.212 309.52 204.813 314.053 200.646C318.586 196.479 322.92 192.546 327.154 188.913C331.387 185.279 335.521 181.946 339.22 179.012C342.92 176.079 346.187 173.546 350.454 170.546C354.72 167.546 359.987 164.079 362.92 162.012C365.853 159.945 366.453 159.279 366.12 157.913C365.787 156.546 364.52 154.479 361.42 153.313C358.32 152.146 353.387 151.879 346.52 151.646C339.654 151.413 330.853 151.213 326.421 150.78C321.987 150.346 321.92 149.679 322.72 148.246C323.521 146.812 325.187 144.613 327.62 141.246C330.054 137.88 333.253 133.346 337.354 128.413C341.454 123.48 346.454 118.146 351.254 113.446C356.054 108.746 360.654 104.68 364.72 101.38C368.787 98.0794 372.32 95.5465 374.154 93.8798C375.987 92.2131 376.12 91.4132 376.12 90.8468C376.12 90.28 375.987 89.9466 365.087 89.9132C354.187 89.8799 332.521 90.1463 321.154 90.3467C309.787 90.5467 308.721 90.6797 307.521 91.0461C306.321 91.4129 304.987 92.013 301.221 94.8463C297.454 97.6796 291.254 102.746 285.121 108.679C278.988 114.613 272.921 121.413 267.554 127.946C262.188 134.48 257.52 140.746 254.954 144.446C252.387 148.147 251.921 149.28 251.454 149.98C250.987 150.679 250.521 150.947 246.821 151.113C243.121 151.28 236.187 151.346 230.754 151.846C225.321 152.347 221.388 153.28 218.821 154.18C216.255 155.08 215.055 155.946 214.255 157.28C213.455 158.613 213.055 160.413 213.588 165.614C214.121 170.813 215.588 179.413 217.488 187.68C219.388 195.946 221.721 203.88 224.354 211.347C226.988 218.813 229.921 225.813 232.888 232.747C235.854 239.68 238.854 246.547 241.354 251.28C243.854 256.013 245.854 258.613 247.521 260.48C249.188 262.347 250.521 263.479 251.854 264.047C253.187 264.613 254.521 264.613 255.888 264.646L255.887 264.646Z" fill="#FEFEFE"/>
<path fill-rule="evenodd" clip-rule="evenodd" d="M235.691 272.782C237.291 271.849 238.824 270.383 239.691 269.083C240.557 267.782 240.758 266.649 240.225 264.783C239.691 262.916 238.425 260.316 236.691 256.949C234.958 253.582 232.758 249.449 230.458 245.083C228.158 240.716 225.758 236.116 223.592 231.316C221.425 226.516 219.491 221.516 217.558 216.649C215.625 211.782 213.691 207.049 212.025 202.482C210.358 197.916 208.958 193.516 207.892 189.883C206.825 186.249 206.091 183.382 205.225 179.482C204.358 175.582 203.358 170.649 202.858 167.716C202.358 164.783 202.358 163.849 202.058 163.149C201.758 162.449 201.158 161.983 200.191 161.883C199.224 161.783 197.891 162.049 196.325 162.849C194.758 163.649 192.958 164.982 190.024 168.149C187.091 171.316 183.025 176.316 179.657 180.616C176.291 184.916 173.624 188.516 172.191 190.65C170.757 192.783 170.558 193.45 169.858 193.583C169.158 193.716 167.958 193.316 164.358 191.55C160.758 189.783 154.757 186.65 149.224 183.816C143.691 180.983 138.624 178.45 134.724 176.75C130.824 175.05 128.091 174.183 126.591 173.816C125.091 173.449 124.824 173.583 123.724 176.216C122.624 178.849 120.691 183.983 118.89 188.949C117.09 193.916 115.424 198.716 114.024 203.616C112.624 208.516 111.49 213.516 110.357 218.716C109.224 223.916 108.091 229.316 107.391 233.416C106.691 237.516 106.424 240.316 106.491 242.083C106.557 243.849 106.957 244.583 107.624 245.083C108.291 245.583 109.224 245.849 110.491 246.183C111.757 246.516 113.357 246.916 116.058 247.783C118.757 248.65 122.558 249.983 125.758 251.283C128.957 252.583 131.557 253.85 133.657 254.85C135.757 255.849 137.358 256.583 138.325 257.217C139.291 257.85 139.625 258.383 138.691 261.65C137.758 264.916 135.558 270.916 133.891 276.183C132.225 281.45 131.091 285.983 130.491 289.55C129.891 293.116 129.824 295.716 129.991 297.416C130.157 299.116 130.557 299.917 130.924 300.317C131.291 300.716 131.624 300.716 132.924 299.683C134.224 298.65 136.491 296.583 139.558 294.783C142.625 292.983 146.491 291.45 150.391 289.85C154.291 288.249 158.224 286.583 162.891 285.083C167.558 283.583 172.958 282.25 178.058 281.183C183.158 280.116 187.958 279.316 193.124 278.55C198.291 277.783 203.824 277.049 208.124 276.416C212.424 275.783 215.491 275.25 219.058 274.95C222.624 274.65 226.691 274.583 229.558 274.35C232.424 274.117 234.091 273.716 235.691 272.783V272.782Z" fill="#FEFEFE"/>
<path fill-rule="evenodd" clip-rule="evenodd" d="M242.258 283.317C241.425 282.25 240.292 281.783 237.458 281.517C234.625 281.25 230.092 281.183 222.758 281.65C215.425 282.117 205.292 283.117 196.358 284.384C187.425 285.65 179.692 287.183 171.859 289.317C164.025 291.45 156.092 294.183 149.925 296.917C143.758 299.65 139.359 302.383 136.459 304.85C133.559 307.317 132.158 309.517 131.491 312.35C130.825 315.183 130.892 318.65 131.958 322.45C133.025 326.249 135.092 330.383 136.625 334.083C138.158 337.783 139.159 341.05 139.625 343.35C140.092 345.65 140.025 346.983 137.825 352.116C135.625 357.25 131.292 366.183 127.325 375.483C123.358 384.783 119.758 394.45 116.258 403.783C112.758 413.117 109.358 422.117 107.858 427.383C106.358 432.65 106.758 434.183 107.358 435.55C107.958 436.916 108.758 438.116 111.392 445.383C114.025 452.65 118.492 465.983 121.325 472.75C124.159 479.517 125.358 479.717 127.425 477.516C129.492 475.316 132.425 470.717 137.758 461.517C143.091 452.316 150.825 438.517 156.725 428.75C162.625 418.983 166.692 413.25 168.859 410.216C171.025 407.183 171.292 406.85 172.259 408.15C173.225 409.45 174.892 412.383 177.992 417.25C181.092 422.116 185.625 428.916 188.425 433.049C191.225 437.183 192.292 438.65 193.559 439.483C194.825 440.316 196.292 440.516 197.492 440.183C198.692 439.85 199.625 438.983 200.459 436.216C201.292 433.45 202.025 428.783 203.025 423.05C204.025 417.316 205.292 410.517 206.992 402.217C208.692 393.917 210.825 384.116 212.425 377.35C214.025 370.583 215.092 366.85 216.659 361.483C218.225 356.117 220.292 349.116 222.359 342.85C224.425 336.583 226.492 331.05 228.659 325.55C230.825 320.05 233.092 314.583 235.358 309.283C237.625 303.983 239.891 298.85 241.358 295.283C242.825 291.716 243.492 289.717 243.559 287.883C243.625 286.05 243.092 284.383 242.258 283.317Z" fill="#FEFEFE"/>
<path fill-rule="evenodd" clip-rule="evenodd" d="M254.576 288.233C253.159 288.583 251.559 289.25 249.426 292.716C247.292 296.183 244.626 302.45 241.692 309.116C238.759 315.783 235.559 322.849 232.759 331.716C229.959 340.582 227.559 351.249 225.359 361.849C223.158 372.449 221.159 382.983 219.492 394.116C217.825 405.25 216.492 416.983 215.692 425.582C214.892 434.183 214.625 439.649 215.025 443.249C215.425 446.85 216.492 448.583 218.559 449.783C220.625 450.982 223.692 451.649 229.625 451.516C235.558 451.383 244.358 450.449 249.092 449.983C253.825 449.516 254.492 449.516 255.358 451.782C256.225 454.049 257.292 458.582 261.559 470.516C265.825 482.449 273.292 501.783 280.359 519.049C287.425 536.316 294.092 551.516 298.492 561.582C302.892 571.649 305.025 576.582 306.959 580.315C308.892 584.049 310.625 586.582 311.959 587.982C313.292 589.382 314.225 589.649 325.425 589.649C336.625 589.649 358.092 589.382 369.092 588.982C380.091 588.582 380.625 588.048 380.225 586.582C379.825 585.116 378.492 582.715 375.559 576.315C372.625 569.915 368.092 559.515 363.025 547.982C357.959 536.449 352.359 523.782 347.692 512.049C343.025 500.315 339.292 489.516 335.892 479.916C332.492 470.315 329.426 461.916 327.826 457.049C326.225 452.182 326.092 450.849 326.242 450.215C326.393 449.582 326.826 449.649 330.109 449.865C333.392 450.082 339.526 450.449 345.376 450.849C351.226 451.249 356.793 451.682 360.476 451.549C364.16 451.416 365.96 450.715 366.81 449.199C367.66 447.682 367.56 445.349 366.61 442.832C365.66 440.315 363.86 437.615 358.66 430.299C353.46 422.982 344.859 411.049 334.443 396.699C324.026 382.349 311.793 365.582 301.093 350.199C290.393 334.815 281.226 320.815 274.709 311.015C268.193 301.215 264.326 295.615 262.06 292.449C259.793 289.282 259.126 288.548 258.176 288.199C257.226 287.849 255.993 287.882 254.576 288.232L254.576 288.233Z" fill="#FEFEFE"/>
<path fill-rule="evenodd" clip-rule="evenodd" d="M470.193 321.846C469.927 320.48 469.593 318.946 467.526 317.213C465.459 315.479 461.66 313.546 450.193 310.712C438.727 307.879 419.593 304.146 402.26 300.813C384.926 297.479 369.393 294.546 356.694 292.279C343.993 290.013 334.127 288.412 324.627 287.046C315.127 285.679 305.993 284.546 299.027 283.813C292.06 283.08 287.26 282.746 283.561 282.779C279.86 282.813 277.26 283.213 275.127 284.279C272.993 285.346 271.327 287.079 270.694 288.846C270.06 290.613 270.461 292.413 271.627 294.879C272.793 297.346 274.727 300.48 281.594 310.446C288.46 320.413 300.261 337.213 314.16 355.946C328.06 374.68 344.06 395.346 354.994 409.379C365.927 423.413 371.794 430.813 375.56 435.646C379.327 440.479 380.994 442.746 383.427 444.046C385.86 445.346 389.06 445.679 391.46 445.212C393.86 444.746 395.461 443.479 397.094 439.779C398.727 436.079 400.394 429.946 401.66 425.379C402.927 420.813 403.793 417.812 404.76 415.645C405.727 413.479 406.794 412.146 408.027 411.379C409.26 410.612 410.66 410.412 430.627 422.512C450.594 434.612 489.127 459.013 509.36 471.646C529.594 484.279 531.527 485.146 533.528 484.779C535.527 484.413 537.594 482.813 540.227 480.013C542.861 477.213 546.06 473.212 549.961 468.646C553.861 464.079 558.461 458.946 562.594 454.713C566.727 450.48 570.394 447.146 573.261 444.479C576.127 441.813 578.194 439.813 579.161 438.446C580.128 437.08 579.995 436.346 579.395 435.28C578.794 434.213 577.727 432.813 566.628 425.513C555.527 418.213 534.394 405.013 512.849 391.646C491.303 378.28 469.344 364.746 458.432 357.846C447.519 350.946 447.652 350.68 448.965 348.946C450.278 347.213 452.769 344.013 456.215 340.513C459.661 337.013 464.061 333.213 466.661 330.68C469.261 328.146 470.061 326.88 470.361 325.646C470.661 324.413 470.461 323.213 470.194 321.847L470.193 321.846Z" fill="#FEFEFE"/>
</svg>
