<svg width="223" height="105" viewBox="0 0 223 105" fill="none" xmlns="http://www.w3.org/2000/svg">
<mask id="mask0_931_201" style="mask-type:alpha" maskUnits="userSpaceOnUse" x="0" y="0" width="223" height="105">
<path d="M80.4207 0.570545C80.2764 0.606627 78.4002 0.750954 76.2713 0.913322C74.1425 1.05765 71.4544 1.27414 70.3178 1.36434C65.0499 1.79732 63.1015 1.95969 53.5398 2.71741C47.9291 3.15039 39.6484 3.79986 35.1381 4.16068C30.6279 4.50346 25.9553 4.86427 24.7646 4.97252C23.5739 5.06272 21.0663 5.27921 19.172 5.42354C17.1514 5.58591 15.1488 5.85652 14.3009 6.09105C12.4427 6.57816 10.2958 7.64257 8.58197 8.92347C6.65159 10.3667 6.47118 10.5291 5.44285 11.7378C2.82693 14.8048 1.14913 18.7918 0.950675 22.4541C0.896553 23.5185 0.968716 24.6371 2.21354 41.5955C2.35786 43.5259 2.5924 46.8093 2.75476 48.902C2.89909 50.9767 3.06146 53.1777 3.11558 53.7731C3.1697 54.3684 3.40423 57.688 3.65681 61.1698C3.90938 64.6337 4.2702 69.631 4.46865 72.265C4.6671 74.8989 5.02791 79.8061 5.28049 83.1797C5.73151 89.2414 6.07428 91.4605 6.7418 93.012C7.40931 94.5274 8.36548 96.2233 9.12319 97.2335C9.98915 98.3882 12.9118 101.311 13.2004 101.311C13.2906 101.311 13.5071 101.437 13.6515 101.563C14.1746 102.05 16.6643 103.259 18.1075 103.746C19.5508 104.233 22.8343 104.775 23.5018 104.648C23.7002 104.594 25.0352 104.486 26.4785 104.378C29.1486 104.179 36.2747 103.62 40.3519 103.295C46.2152 102.826 52.4935 102.339 59.7639 101.762C64.1298 101.419 68.7122 101.058 69.957 100.95C71.2018 100.86 74.3229 100.607 76.9028 100.409C88.8097 99.4887 88.6835 99.5067 91.0649 98.6588C94.5107 97.432 97.9745 94.6717 99.959 91.5507C100.789 90.2337 102.016 87.7982 102.142 87.2389C102.178 86.9863 102.358 86.3729 102.503 85.8858C102.665 85.3807 102.846 84.4065 102.9 83.7209C102.954 83.0173 103.026 82.3498 103.08 82.2235C103.116 82.0973 103.062 80.9968 102.972 79.788C102.773 77.3705 102.575 74.6103 102.16 69.0176C101.583 61.1157 100.248 43.0207 100.085 40.8739C99.9951 39.629 99.5441 33.4951 99.093 27.253C98.642 20.9928 98.191 15.6347 98.1008 15.328C97.9925 15.0213 97.9204 14.6424 97.9204 14.4801C97.9204 14.3177 97.7039 13.56 97.4333 12.7842C96.5493 10.2224 94.9076 7.73277 92.6164 5.47766C91.7143 4.59366 90.9205 3.89007 90.8123 3.89007C90.7221 3.89007 90.5056 3.78182 90.3613 3.63749C89.7479 3.11431 87.1861 1.86949 85.6887 1.38238C84.8227 1.11177 83.5057 0.823117 82.766 0.750954C82.0264 0.67879 81.2506 0.588586 81.0522 0.552504C80.8537 0.516423 80.5651 0.534463 80.4207 0.570545ZM56.0655 19.0444C56.0655 19.1346 55.4341 19.6939 54.6764 20.2892C53.9006 20.8665 52.8182 21.8227 52.2589 22.418C50.9961 23.735 48.8131 26.6216 48.9033 26.8741C48.9574 27.0545 51.0502 27.253 53.4857 27.3252C54.0991 27.3432 54.3156 27.4334 54.5501 27.8123C54.8207 28.2092 54.8207 28.2994 54.6042 28.4257C54.1171 28.7324 53.6661 29.0571 53.4316 29.2916C53.2873 29.4179 53.1068 29.472 52.9986 29.4179C52.9084 29.3638 52.8182 29.3999 52.8182 29.5081C52.8182 29.6164 52.6919 29.7607 52.5115 29.8148C52.3491 29.887 52.0064 30.1215 51.7538 30.338C51.5012 30.5725 50.6352 31.2761 49.8414 31.9256C47.6946 33.6395 43.5632 37.7889 43.0581 38.745C42.9498 38.9435 42.7333 39.2321 42.571 39.4125C41.9756 40.0259 41.4344 40.8017 41.1277 41.4151C40.7488 42.2269 40.4061 42.4795 39.7205 42.4975C38.9808 42.4975 38.3494 41.8661 37.6458 40.4048C37.3572 39.7734 37.1046 39.1961 37.1046 39.1239C37.1046 39.0337 36.9783 38.7811 36.834 38.5646C36.6716 38.3301 36.5994 38.0956 36.6536 38.0414C36.6896 37.9873 36.5814 37.7889 36.401 37.5904C36.2206 37.392 36.1123 37.1214 36.1484 36.9951C36.2025 36.8688 36.1665 36.7064 36.0582 36.6523C35.8598 36.526 34.7773 33.1884 34.7232 32.5751C34.7052 32.3766 34.651 32.2142 34.5969 32.2142C34.5247 32.2142 34.4706 32.106 34.4706 31.9797C34.4165 31.2761 34.3263 30.771 34.2361 30.771C34.182 30.771 34.1459 30.5906 34.1278 30.356C34.1278 30.1395 34.0737 29.5983 34.0196 29.1473C33.8211 27.7221 34.3083 27.4154 37.1407 27.1989C38.3494 27.0906 39.2154 26.9463 39.2515 26.8381C39.4138 26.3149 42.3004 22.7608 43.3287 21.8047C44.772 20.4335 46.5039 19.1166 46.9549 18.9903C47.6405 18.8279 56.0655 18.864 56.0655 19.0444ZM32.5222 29.2375C32.5402 29.5442 32.6124 29.887 32.6846 30.0133C32.8289 30.2478 32.883 30.4643 33.0454 31.6008C33.1176 31.9797 33.2619 32.3586 33.3882 32.4307C33.4964 32.5029 33.5505 32.5751 33.4784 32.5751C33.298 32.5751 33.8572 34.3611 34.182 34.8662C34.3263 35.1008 34.3985 35.2812 34.3083 35.2812C34.2361 35.2812 34.2541 35.3714 34.3804 35.4977C34.5067 35.624 34.5969 35.8946 34.5969 36.1291C34.5969 36.3636 34.6871 36.544 34.7773 36.544C34.8856 36.544 34.9577 36.6884 34.9577 36.8868C34.9577 37.0672 35.084 37.3198 35.2283 37.4461C35.3727 37.5724 35.4629 37.7347 35.4087 37.8069C35.3546 37.8791 35.4448 38.0414 35.5892 38.1677C35.7335 38.294 35.8958 38.6548 35.968 38.9976C36.0221 39.3404 36.1484 39.611 36.2206 39.611C36.3288 39.611 36.7799 40.3868 36.852 40.6934C36.852 40.7476 37.0865 41.1986 37.3391 41.6857C37.718 42.4254 37.7721 42.6779 37.6097 42.9486C37.2128 43.6882 36.9242 43.7604 33.334 44.013C32.883 44.049 32.5222 44.0851 32.5222 44.1212C32.5222 44.1573 32.2877 44.1934 30.8985 44.3738C30.4114 44.4459 29.3831 44.6624 28.6434 44.8789C27.9037 45.0774 27.1821 45.2578 27.0739 45.2578C26.9476 45.2578 26.8393 45.348 26.8393 45.4382C26.8393 45.5284 26.713 45.5645 26.5687 45.4923C26.4244 45.4382 26.2981 45.4743 26.2981 45.5825C26.2981 45.6908 26.2259 45.7269 26.1538 45.6727C26.0816 45.6366 25.6306 45.781 25.1615 46.0155C24.6925 46.2681 24.3136 46.4124 24.3136 46.3583C24.3136 46.3042 23.9889 46.5026 23.61 46.8093C23.0327 47.2784 22.8884 47.3144 22.7982 47.0799C22.5997 46.5567 22.6899 45.9794 23.3394 43.8506L23.9708 41.7398L23.61 41.397C23.4116 41.1986 23.177 41.0723 23.1049 41.0903C23.0327 41.1084 22.4734 40.8919 21.8781 40.6213C21.2827 40.3507 20.5972 40.0981 20.3446 40.062C20.092 40.044 19.8395 40.0079 19.7853 39.9899C19.3704 39.9177 19.5508 38.5646 20.5611 34.2709C20.9039 32.8276 21.7879 30.5545 22.1126 30.2839C22.4013 30.0313 22.9245 30.1756 22.7441 30.4643C22.6899 30.5725 22.726 30.5906 22.8343 30.5184C23.0507 30.3921 24.6744 31.0777 24.8909 31.3844C24.9631 31.4926 25.0352 31.5287 25.0352 31.4565C25.0352 31.3844 25.3239 31.4746 25.6667 31.673C26.0275 31.8715 26.3883 32.0338 26.4966 32.0338C26.5868 32.0338 26.9837 32.2323 27.3986 32.4848C28.0842 32.9359 28.463 32.9539 28.463 32.539C28.463 32.3225 29.6357 30.7529 30.6279 29.6344C31.6562 28.4798 32.4681 28.3174 32.5222 29.2375ZM58.2665 29.2736C58.5191 29.3457 58.8078 29.7968 58.8619 30.2297C58.898 30.5906 59.3851 31.4926 59.5474 31.4926C59.6557 31.4926 59.6918 31.5467 59.6196 31.6008C59.5655 31.673 59.6196 31.9436 59.782 32.2323C59.9263 32.5209 60.0345 32.8096 60.0345 32.8817C60.0345 33.1163 62.5061 32.9539 63.2819 32.6833C63.4262 32.6292 63.8412 32.539 64.1839 32.4848C67.2328 31.9977 68.2792 31.8534 68.4596 31.9436C68.5859 31.9797 68.6942 31.9436 68.6942 31.8534C68.6942 31.7632 68.8746 31.673 69.1091 31.673C69.939 31.673 70.2637 31.6369 71.4544 31.3844C72.14 31.24 73.2765 31.0777 73.9801 31.0055C75.4956 30.8973 75.7301 30.8612 76.0909 30.7168C76.7584 30.4643 78.0754 30.807 78.0754 31.24C78.0754 31.3663 78.2197 31.5467 78.3821 31.655C78.5625 31.7452 78.6527 31.8895 78.5806 31.9436C78.4723 32.0699 78.5625 32.2142 79.1037 32.8276C79.23 32.972 79.2842 33.1163 79.23 33.1704C79.1759 33.2245 79.2842 33.423 79.4646 33.6214C80.0599 34.2889 80.2403 34.5415 80.2403 34.74C80.2403 34.8482 80.3666 34.9745 80.5109 35.0286C80.6553 35.1008 80.7816 35.2992 80.7816 35.4796C80.7816 35.66 80.8898 35.8224 81.0341 35.8224C81.1604 35.8224 81.3408 35.9667 81.3949 36.1291C81.6295 36.7605 82.0625 37.4461 82.2429 37.4461C82.3331 37.4461 82.4052 37.5543 82.4052 37.6987C82.4052 37.843 82.5135 38.0775 82.6398 38.2038C83.1449 38.745 83.6681 39.5027 83.6681 39.7192C83.6681 39.9899 83.1269 40.1883 82.2248 40.2605C81.882 40.2785 80.98 40.3507 80.2403 40.4048C79.5006 40.477 78.2378 40.5491 77.444 40.6032C76.6502 40.6393 76.0007 40.6934 76.0007 40.7115C76.0007 40.7115 75.7121 40.7476 75.3693 40.7837C73.5832 40.946 71.9776 41.0903 71.4905 41.1445C71.2018 41.1625 70.4441 41.2527 69.8307 41.3068C69.2173 41.379 68.2973 41.5053 67.7741 41.5955C67.2689 41.6857 66.7818 41.7218 66.6916 41.6677C66.6014 41.6135 66.421 41.6316 66.3128 41.7218C66.1865 41.7939 66.0061 41.8661 65.8978 41.8841C65.8076 41.8841 65.6092 41.9202 65.4829 41.9202C65.3205 41.9563 65.3025 42.0285 65.4468 42.1728C65.8257 42.6419 66.5293 43.7784 66.5293 43.9588C66.5293 44.049 66.6555 44.1753 66.7999 44.2295C66.9442 44.3016 67.0705 44.4459 67.0705 44.5722C67.0705 44.6985 67.305 45.0774 67.6117 45.4021C67.9004 45.7449 68.1529 46.1238 68.1529 46.232C68.1529 46.3583 68.2792 46.4665 68.4235 46.4665C68.8024 46.4665 68.7663 47.2964 68.3694 47.6933C68.0808 47.982 67.9545 47.982 67.0705 47.7835C59.7459 46.0877 50.3466 44.5542 45.241 44.2114C42.8235 44.031 42.12 43.9408 41.8674 43.7424C41.5968 43.5078 41.5426 42.1367 41.8133 42.1367C41.9215 42.1367 41.9937 42.0285 41.9937 41.9022C41.9937 41.7759 42.156 41.5053 42.3364 41.2888C42.5169 41.0903 42.8055 40.6754 42.9679 40.3687C43.1302 40.062 43.4009 39.7192 43.5813 39.629C43.7617 39.5388 44.0142 39.2502 44.1586 38.9976C44.2849 38.745 44.4653 38.5285 44.5374 38.5285C44.7359 38.5285 46.5039 36.7425 46.5039 36.544C46.5039 36.4358 46.576 36.3636 46.6843 36.3636C46.8467 36.3636 47.3338 36.0209 47.9291 35.4616C48.0915 35.3173 48.4703 35.0106 48.759 34.776C50.0399 33.7838 50.5631 33.3689 50.9419 33.008C51.3569 32.6111 51.9161 32.3225 52.1507 32.3586C52.2228 32.3766 52.277 32.2864 52.277 32.1601C52.277 32.0338 52.4935 31.8354 52.7821 31.7091C53.6842 31.2942 54.0811 31.0416 54.0811 30.9153C54.0811 30.8251 54.2073 30.771 54.3517 30.771C54.496 30.771 54.6223 30.6808 54.6223 30.5906C54.6223 30.4823 54.7305 30.4102 54.8749 30.4102C55.0192 30.4102 55.1635 30.2839 55.2357 30.1395C55.2898 29.9952 55.4522 29.8689 55.5784 29.8689C55.7228 29.8689 55.9753 29.7066 56.1377 29.5261C56.4805 29.1653 57.2202 28.9669 57.6892 29.1112C57.8336 29.1473 58.1042 29.2195 58.2665 29.2736ZM37.8984 44.9872C38.3494 45.3841 38.2772 45.781 37.4834 47.4047C37.0865 48.2165 36.7618 48.9742 36.7618 49.0825C36.7618 49.1727 36.5453 49.6598 36.3108 50.1649C36.0582 50.652 35.8598 51.2113 35.8598 51.3736C35.8598 51.536 35.7876 51.7164 35.6974 51.7705C35.6252 51.8247 35.4448 52.2576 35.3185 52.7267C35.1923 53.2138 35.0118 53.7009 34.9036 53.8092C34.8134 53.9354 34.7773 54.0437 34.8314 54.0437C34.8856 54.0437 34.8495 54.3143 34.7593 54.621C34.651 54.9457 34.5428 55.2885 34.5247 55.3968C34.2541 56.389 34.0016 57.2369 33.9114 57.3813C33.8572 57.4715 33.7851 57.6699 33.767 57.8323C33.749 57.9766 33.6407 58.6261 33.5145 59.2755C33.4062 59.925 33.2799 60.6467 33.2438 60.8992C33.2078 61.1518 33.1717 61.3502 33.1536 61.3502C33.1356 61.3502 33.0995 61.5667 33.0634 61.8374C33.0274 62.126 32.9552 62.5049 32.883 62.6853C32.7026 63.2626 32.6124 63.8218 32.4861 64.9584C32.3057 66.7264 31.6923 66.7986 30.6099 65.1749C30.213 64.5615 29.798 64.0203 29.7078 64.0023C29.6176 63.9662 29.5455 63.8218 29.5455 63.6956C29.5455 63.5693 29.2568 63.028 28.914 62.4868C28.3367 61.6209 28.2646 61.5667 28.1744 61.9276C28.1022 62.1621 28.012 62.3425 27.9398 62.3425C27.8857 62.3425 27.6151 62.7214 27.3806 63.1904C27.128 63.6414 26.7491 64.2187 26.5146 64.4713C26.2981 64.7239 25.9373 65.3012 25.7028 65.7522C25.4863 66.2032 25.2337 66.6362 25.1615 66.6903C25.0713 66.7445 24.9992 66.8708 24.9992 66.961C24.9811 67.2496 24.6203 67.9352 24.494 67.9352C24.4219 67.9352 24.3136 68.0795 24.2595 68.2419C23.9167 69.2702 22.4193 71.5433 22.0765 71.5433C21.842 71.5433 21.4271 70.8037 21.4271 70.3707C21.4271 70.2444 21.3729 70.1001 21.3008 70.064C21.1023 69.9918 20.3266 67.845 20.1642 66.9429C20.092 66.546 19.9116 65.9507 19.7853 65.6259C19.5689 65.1028 19.6049 64.8863 20.1462 63.1904C20.4889 62.1801 20.8678 61.0977 20.9941 60.809C21.4992 59.6364 22.3291 57.3632 22.3291 57.1467C22.3291 57.0385 22.4013 56.9302 22.4915 56.9302C22.5817 56.9302 22.708 56.6957 22.7801 56.389C22.8523 56.1004 22.9786 55.8117 23.0688 55.7576C23.2312 55.6493 23.8265 54.4406 24.025 53.737C24.1512 53.3221 23.8626 52.2576 23.2131 50.8324C22.4193 49.1005 23.0688 47.7655 25.0894 47.0438C25.5584 46.8815 25.9373 46.683 25.9373 46.5928C25.9373 46.5206 26.0275 46.5026 26.1177 46.5567C26.2259 46.6109 26.2981 46.5748 26.2981 46.4485C26.2981 46.3222 26.3522 46.2681 26.4063 46.3222C26.4605 46.3944 26.7672 46.3222 27.1099 46.1779C27.4347 46.0516 27.9398 45.8892 28.2465 45.8351C28.5532 45.781 29.0223 45.6547 29.2929 45.5645C29.5635 45.4562 30.1408 45.33 30.5918 45.2758C31.0248 45.2217 31.566 45.1135 31.7645 45.0413C31.981 44.9691 32.7387 44.897 33.4243 44.8609C34.1278 44.8248 34.7232 44.7707 34.7593 44.7346C34.8134 44.6805 35.4629 44.6624 36.2025 44.6805C37.1407 44.6985 37.6639 44.7887 37.8984 44.9872ZM47.9472 45.3119C48.2899 45.348 48.9394 45.4021 49.3904 45.4382C49.8414 45.4743 50.3105 45.5464 50.4007 45.6186C50.509 45.6727 51.1404 45.781 51.7899 45.8531C52.4574 45.9253 52.9986 46.0335 52.9986 46.1238C52.9986 46.1959 53.2151 46.2681 53.5037 46.25C53.7744 46.25 54.1893 46.2861 54.4419 46.3583C54.6944 46.4304 56.282 46.7191 57.9598 47.0258C59.6557 47.3144 61.2794 47.6211 61.568 47.7113C61.8747 47.8016 62.4701 47.9459 62.9211 48.018C63.3721 48.0722 63.787 48.2165 63.8412 48.3067C63.8953 48.3969 64.3283 48.4871 64.7793 48.5051C65.2484 48.5232 65.6272 48.5953 65.6272 48.6495C65.6272 48.7216 66.1324 48.866 66.7638 48.9922C67.9725 49.2087 68.5679 49.5876 68.7663 50.219C68.9287 50.7242 68.7483 51.3376 68.4235 51.3376C68.2973 51.3376 68.1529 51.518 68.0988 51.7345C68.0266 51.951 67.9364 52.0772 67.8823 52.0231C67.738 51.8788 67.1066 52.4561 67.1968 52.6365C67.2328 52.7267 67.1787 52.7808 67.0524 52.7808C66.7999 52.7808 66.2226 53.4303 66.0782 53.8813C66.0061 54.0798 65.8798 54.17 65.7535 54.0978C65.6092 54.0257 65.6272 54.0798 65.7715 54.2602C65.8978 54.4226 66.2045 54.603 66.4391 54.6571C66.6916 54.7292 66.8901 54.8375 66.8901 54.9277C66.8901 55.0179 67.1426 55.1803 67.4313 55.3066C67.738 55.4328 67.9725 55.5952 67.9725 55.6854C67.9725 55.7756 68.0988 55.7937 68.2431 55.7395C68.3875 55.6674 68.5138 55.7035 68.5138 55.8117C68.5138 55.9019 68.7483 56.0823 69.0369 56.2086C69.3256 56.3168 69.6142 56.5333 69.6684 56.6777C69.7225 56.822 69.8849 56.9302 70.0472 56.9302C70.1916 56.9302 70.3178 57.0024 70.3178 57.1106C70.3178 57.2008 70.4802 57.2911 70.6787 57.2911C70.8771 57.2911 71.0936 57.4173 71.1477 57.5617C71.2199 57.706 71.3462 57.8323 71.4544 57.8323C71.6709 57.8323 73.0781 58.7524 73.1683 58.9508C73.2044 59.041 73.3307 59.0951 73.457 59.0951C73.5832 59.0951 74.4131 59.5822 75.3332 60.1776C76.2353 60.7729 77.0832 61.26 77.2275 61.26C77.3718 61.26 77.5342 61.3863 77.6064 61.5307C77.6605 61.675 77.7868 61.8013 77.895 61.8013C78.0033 61.8013 78.2558 61.9636 78.4723 62.1621C78.6888 62.3605 79.0135 62.5229 79.194 62.5229C79.3744 62.5229 79.5187 62.6492 79.5187 62.7935C79.5187 62.9378 79.663 63.0641 79.8615 63.0641C80.0419 63.0641 80.2764 63.1724 80.3847 63.2987C80.4929 63.4249 80.98 63.7316 81.4851 63.9662C81.9903 64.2187 82.4052 64.5254 82.4052 64.6337C82.4052 64.76 82.5676 64.8682 82.748 64.8682C82.9465 64.8682 83.2712 65.1028 83.4696 65.3914C83.8124 65.8785 83.9928 66.3476 83.7403 66.077C83.6861 66.0228 83.4516 66.1672 83.2171 66.4197C83.0006 66.6543 82.766 66.8527 82.7119 66.8527C82.4594 66.8527 81.3949 68.0795 81.4671 68.2779C81.5032 68.3862 81.4671 68.4584 81.3769 68.4403C81.2867 68.4042 81.0341 68.5666 80.7816 68.7831C80.547 69.0176 80.2944 69.198 80.2403 69.198C80.1682 69.198 80.0238 69.4145 79.9156 69.6671C79.7893 69.9197 79.6269 70.082 79.5548 70.0279C79.4646 69.9738 79.2481 70.2444 79.0677 70.6052C78.8692 70.966 78.5806 71.4171 78.4182 71.5794C78.2558 71.7418 78.0754 71.9583 78.0574 72.0665C77.9311 72.3552 76.8486 72.4273 76.6141 72.1567C76.5059 72.0124 76.3255 71.9042 76.2353 71.9042C76.0909 71.9042 75.8925 71.7598 75.3152 71.2547C75.1889 71.1464 74.9183 71.0021 74.7018 70.93C74.4853 70.8578 74.2688 70.6954 74.2327 70.5691C74.1786 70.4248 73.8899 70.2624 73.6013 70.1903C73.2946 70.1362 72.9157 69.9197 72.7353 69.7212C72.5729 69.5408 72.3204 69.3784 72.176 69.3784C72.0498 69.3784 71.9415 69.2882 71.9415 69.198C71.9415 69.0898 71.8152 69.0176 71.6709 69.0176C71.5266 69.0176 71.0214 68.729 70.5704 68.3862C70.1013 68.0254 69.4699 67.6285 69.1452 67.4841C68.8204 67.3579 68.3875 67.0872 68.2071 66.9068C68.0266 66.7264 67.4854 66.4017 67.0164 66.1672C66.5473 65.9326 66.1684 65.6981 66.1684 65.6259C66.1684 65.5538 65.8257 65.3373 65.3927 65.1388C64.9777 64.9404 64.5989 64.7419 64.5448 64.6698C64.4906 64.6156 64.1298 64.4172 63.7329 64.2368C63.336 64.0383 62.7768 63.6775 62.4881 63.3889C62.1814 63.1183 61.7665 62.8837 61.55 62.8837C61.3335 62.8837 61.117 62.7574 61.0448 62.6131C60.9005 62.1982 60.2691 62.2884 60.1247 62.7394C60.0526 62.9739 59.9804 63.1904 59.9624 63.2445C59.9443 63.2987 59.782 63.6054 59.6016 63.9301C59.4392 64.2729 59.3309 64.5796 59.3851 64.6337C59.4392 64.6878 59.3851 64.9043 59.2768 65.1028C59.1686 65.3192 59.0603 65.6079 59.0423 65.7703C58.8799 66.8347 58.465 67.1594 57.4727 66.9429C56.8413 66.7986 56.246 66.2574 55.831 65.4816C55.5784 65.0125 55.2357 64.5976 53.7924 63.028C53.5579 62.7755 53.3594 62.5049 53.3594 62.4507C53.3594 62.2884 51.8079 60.2858 51.4832 59.9972C51.3208 59.8709 51.1945 59.6905 51.1945 59.6003C51.1945 59.5101 51.0863 59.3297 50.978 59.2034C50.3827 58.59 49.9317 57.9946 49.9317 57.8323C49.9317 57.724 49.8234 57.5977 49.6791 57.5436C49.5348 57.4895 49.3724 57.255 49.3183 57.0024C49.2461 56.7679 49.1198 56.5694 49.0296 56.5694C48.9214 56.5694 48.8492 56.4431 48.8492 56.2988C48.8492 56.1545 48.741 56.0282 48.6327 56.0282C48.5064 56.0282 48.1997 55.7215 47.9472 55.3426C47.442 54.603 47.3698 54.4947 46.8647 53.8813C46.6663 53.6468 46.5039 53.3401 46.5039 53.1958C46.5039 53.0695 46.3776 52.9071 46.2333 52.853C46.0889 52.7808 45.9627 52.6185 45.9627 52.4922C45.9627 52.3479 45.8364 52.1855 45.692 52.1314C45.5477 52.0592 45.4214 51.9329 45.4214 51.8066C45.4214 51.6984 45.1689 51.3195 44.8802 50.9767C44.0503 50.0206 43.9782 49.9304 43.9782 49.7319C43.9782 49.6417 43.7797 49.3891 43.5271 49.1546C43.2926 48.9201 43.0761 48.6495 43.0761 48.5773C43.0761 48.5051 42.7514 47.9459 42.3725 47.3505C41.7411 46.3944 41.687 46.1959 41.8493 45.7449C41.9395 45.4562 42.156 45.1856 42.3184 45.1315C42.6251 45.0413 46.7204 45.1676 47.9472 45.3119ZM40.821 46.5567C41.1999 47.098 41.5787 47.549 41.6509 47.549C41.7231 47.549 41.8313 47.6933 41.8854 47.8737C41.9937 48.1985 43.04 49.9123 43.5271 50.5257C43.6715 50.7061 43.7978 50.9587 43.7978 51.0669C43.7978 51.1572 44.0142 51.4458 44.2488 51.6803C44.5013 51.9149 44.6998 52.2035 44.6998 52.3298C44.6998 52.4741 44.9524 52.853 45.241 53.1777C45.5477 53.5025 45.7822 53.8633 45.7822 53.9715C45.7822 54.0978 45.9085 54.2241 46.0529 54.2963C46.1972 54.3504 46.3235 54.5128 46.3235 54.6751C46.3235 54.8195 46.3956 54.9457 46.4678 54.9457C46.558 54.9457 46.7745 55.2705 46.9729 55.6674C47.1534 56.0643 47.424 56.389 47.5503 56.389C47.6585 56.389 47.7667 56.5514 47.7667 56.7498C47.7667 56.9483 47.893 57.1648 48.0374 57.2189C48.1817 57.2911 48.308 57.4534 48.308 57.5977C48.308 57.724 48.5064 58.0307 48.759 58.2653C49.0116 58.4998 49.21 58.7524 49.21 58.8426C49.21 58.9328 49.3904 59.2034 49.625 59.456C49.8595 59.7085 50.2023 60.1776 50.3827 60.4843C50.5811 60.809 50.7976 61.0796 50.8698 61.0796C50.9419 61.0796 51.0141 61.1698 51.0141 61.2781C51.0141 61.4044 51.1945 61.6569 51.429 61.8734C51.6455 62.0899 51.9522 62.4868 52.0966 62.7935C52.2409 63.0822 52.4935 63.461 52.6378 63.6234C53.2151 64.2368 53.5398 64.7059 53.5398 64.8682C53.5398 64.9765 53.612 65.0486 53.6842 65.0486C53.7744 65.0486 53.9548 65.2471 54.0811 65.4996C54.2073 65.7522 54.4238 65.9507 54.5682 65.9507C54.6944 65.9507 54.8207 66.095 54.8207 66.2574C54.9109 67.4481 54.8929 67.6104 54.6042 67.7728C54.4058 67.881 53.3414 67.863 51.8079 67.7548C50.4368 67.6646 49.3002 67.6104 49.2822 67.6285C49.2461 67.6465 49.8234 69.2882 50.545 71.2727C51.9883 75.2056 53.8104 79.6978 55.4702 83.3601C56.0475 84.641 56.4985 85.8498 56.4624 86.0121C56.4083 86.3188 56.0475 86.3369 52.0244 86.3369C48.8131 86.3369 47.5683 86.2827 47.3518 86.1023C46.6482 85.5791 40.8932 71.7779 39.7205 67.7908C39.6484 67.5383 39.035 67.5202 36.8881 67.7548C35.1381 67.9352 34.7954 67.845 34.3985 67.0692C34.1639 66.6543 34.0376 64.5074 34.2541 64.5074C34.3083 64.5074 34.3443 64.2187 34.3624 63.876C34.3804 62.9739 34.5969 60.6647 34.6691 60.5565C34.7052 60.5023 34.7954 60.0333 34.8675 59.5462C34.9397 59.041 35.0299 58.4817 35.066 58.2833C35.1021 58.0849 35.1742 57.6338 35.2464 57.2911C35.3005 56.9483 35.3907 56.5333 35.4448 56.389C35.517 56.2447 35.535 56.0643 35.535 55.9741C35.4629 55.7035 36.2747 52.6726 36.5994 51.9329C36.7799 51.4999 36.9422 51.0309 36.9422 50.8685C36.9422 50.7242 37.0324 50.4355 37.1407 50.2371C37.2489 50.0386 37.3572 49.7139 37.3932 49.4974C37.4474 49.2989 37.6278 48.7938 37.8082 48.3789C38.0066 47.982 38.2772 47.3686 38.4035 47.0438C38.5479 46.7371 38.7102 46.4665 38.7824 46.4665C38.8726 46.4665 38.9267 46.3583 38.9267 46.232C38.9267 45.8712 39.3056 45.5645 39.7566 45.5645C40.0272 45.5645 40.3519 45.8712 40.821 46.5567Z" fill="black"/>
<path d="M133.281 16.7171C126.046 17.547 121.031 20.4877 118.685 25.2685C117.928 26.8561 117.585 28.2452 117.459 30.4101C117.224 34.74 118.451 38.1497 121.265 40.9641C123.484 43.1831 125.469 44.3557 131.188 46.8273C134.706 48.3608 136.799 49.5515 138.025 50.7602C139.144 51.8427 139.613 52.7628 139.721 54.0617C139.865 55.4689 139.198 56.8581 137.989 57.7601C135.373 59.6905 129.853 59.9791 124.946 58.4457C123.069 57.8503 120.201 56.407 118.722 55.2705L117.585 54.4225V59.9791V65.5538L118.938 66.113C125.216 68.729 135.788 68.9996 142.229 66.7264C146.288 65.2832 149.373 62.4688 150.762 58.9508C151.628 56.7679 151.917 53.1056 151.43 50.4355C150.437 44.9691 146.721 41.4692 138.061 37.8069C134.417 36.2734 132.379 35.1008 131.007 33.7477C130.087 32.8457 129.654 32.2864 129.51 31.7632C128.68 28.7323 130.737 26.4051 134.94 25.5932C138.693 24.8896 144.592 25.954 148.164 27.9746L149.517 28.7504V23.5726V18.3769L147.948 17.9078C143.834 16.681 137.827 16.1939 133.281 16.7171Z" fill="black"/>
<path d="M159.981 42.4073V67.3939H174.774H189.568V62.7935V58.1931H180.367H171.166V37.8069V17.4207H165.574H159.981V42.4073Z" fill="black"/>
<path d="M138.332 83.6307V90.8471H139.865H141.399V83.6307V76.4144H139.865H138.332V83.6307Z" fill="black"/>
<path d="M163.86 76.6309C162.904 77.1901 162.777 78.1643 163.571 78.9581C163.968 79.337 164.275 79.4813 164.762 79.4813C165.989 79.4813 166.927 78.002 166.241 77.118C165.736 76.4505 164.581 76.2159 163.86 76.6309Z" fill="black"/>
<path d="M212.841 83.6307V90.8471H214.374H215.908V90.3058V89.7466L216.629 90.3239C217.91 91.3522 219.985 91.2259 221.302 90.0172C223.106 88.3935 223.485 84.3884 222.024 82.3678C220.761 80.6179 218.163 80.4194 216.593 81.9529L215.908 82.6204V79.5174V76.4144H214.374H212.841V83.6307ZM218.957 83.5585C220.183 84.4245 220.183 87.1848 218.957 88.2131C218.145 88.8986 217.297 88.8445 216.521 88.0688C215.926 87.4734 215.908 87.4013 215.908 86.1203C215.908 84.1539 216.521 83.306 217.982 83.2879C218.289 83.2699 218.722 83.3962 218.957 83.5585Z" fill="black"/>
<path d="M118.361 77.2082C115.853 77.8396 114.608 79.8061 115.24 82.0792C115.564 83.2519 116.484 84.0818 118.577 85.074C120.616 86.0482 121.247 86.5895 121.157 87.3291C120.977 88.8987 117.783 89.0971 115.709 87.6899L115.041 87.2389L115.095 88.8265L115.149 90.3961L116.412 90.7208C118.902 91.3703 122.023 90.9193 123.34 89.7105C124.422 88.7002 124.747 86.7338 124.062 85.2905C123.593 84.3163 122.709 83.6668 120.526 82.6385C118.252 81.5741 117.729 80.636 118.902 79.77C119.642 79.2288 121.825 79.2468 123.051 79.788L123.899 80.1849V78.8319C123.899 77.5329 123.881 77.4788 123.412 77.2984C122.618 76.9917 119.425 76.9376 118.361 77.2082Z" fill="black"/>
<path d="M192.815 83.9915V90.8471H196.784H200.753V89.5842V88.3214H198.318H195.882V82.7287V77.136H194.349H192.815V83.9915Z" fill="black"/>
<path d="M157.78 78.6334L156.373 79.0303V80.0586V81.105H155.561H154.749V82.1874V83.2699H155.543H156.337L156.409 86.2286C156.463 89.4579 156.535 89.6924 157.69 90.5584C158.339 91.0455 160.035 91.1537 160.937 90.7929C161.605 90.5043 161.605 90.5043 161.605 89.4038C161.605 88.3754 161.587 88.3213 161.262 88.5017C160.721 88.7904 160.197 88.7182 159.801 88.3213C159.476 87.9966 159.44 87.726 159.44 85.6152V83.2699H160.522H161.605V82.1874V81.105H160.522H159.44V79.6617C159.44 78.8679 159.386 78.2184 159.313 78.2365C159.223 78.2545 158.538 78.4349 157.78 78.6334Z" fill="black"/>
<path d="M129.582 81.087C127.111 81.7004 125.703 83.7931 125.938 86.5353C126.191 89.5121 128.355 91.2259 131.585 90.9734C134.706 90.7388 136.528 88.61 136.311 85.4529C136.113 82.6565 134.074 80.8885 131.134 80.9426C130.574 80.9607 129.889 81.0148 129.582 81.087ZM132.198 83.5045C133.136 83.9735 133.533 85.6874 133.082 87.293C132.649 88.8446 130.286 89.1873 129.384 87.8343C129.005 87.2389 128.861 85.6333 129.113 84.8395C129.564 83.5225 130.989 82.8911 132.198 83.5045Z" fill="black"/>
<path d="M171.798 81.087C169.326 81.7004 167.919 83.7931 168.154 86.5353C168.406 89.5121 170.571 91.2259 173.8 90.9734C176.921 90.7388 178.744 88.61 178.527 85.4529C178.329 82.6565 176.29 80.8885 173.349 80.9426C172.79 80.9607 172.104 81.0148 171.798 81.087ZM174.414 83.5045C175.352 83.9735 175.749 85.6874 175.298 87.293C174.865 88.8446 172.501 89.1873 171.599 87.8343C171.22 87.2389 171.076 85.6333 171.329 84.8395C171.78 83.5225 173.205 82.8911 174.414 83.5045Z" fill="black"/>
<path d="M185.491 81.123C185.166 81.2132 184.625 81.6101 184.264 82.007L183.615 82.7287V81.9168V81.105H182.081H180.548V85.976V90.8471H182.081H183.615V87.8884C183.615 86.2647 183.705 84.6951 183.813 84.3884C184.21 83.2519 185.563 82.9091 186.339 83.739C186.754 84.19 186.772 84.2982 186.826 87.5276L186.88 90.8471H188.413H189.947L189.893 87.0044C189.839 83.4142 189.821 83.1256 189.424 82.4039C188.756 81.1591 187.151 80.6359 185.491 81.123Z" fill="black"/>
<path d="M204.813 81.0509C204.614 81.087 204.019 81.2493 203.514 81.3937L202.557 81.6643V82.8008V83.9374L203.459 83.4864C204.001 83.2158 204.794 83.0173 205.516 82.9632C206.581 82.873 206.707 82.8911 207.14 83.324C207.392 83.5766 207.609 83.9555 207.609 84.1539C207.609 84.4426 207.392 84.5147 206.039 84.7132C204.019 84.9838 203.405 85.1822 202.702 85.7596C201.655 86.6436 201.367 88.1229 201.998 89.5121C202.612 90.8651 204.506 91.4063 206.093 90.6847C206.49 90.5043 206.995 90.1254 207.212 89.8548L207.609 89.3497V90.1074V90.8471H209.052H210.495V87.5817C210.495 85.7235 210.405 83.9735 210.279 83.5044C210.008 82.4039 209.016 81.4117 207.916 81.1411C207.104 80.9246 205.534 80.8885 204.813 81.0509ZM207.609 86.8781C207.609 88.0507 206.797 88.8626 205.624 88.8626C204.56 88.8626 203.983 87.6538 204.704 86.9863C205.011 86.6977 206.166 86.409 207.212 86.3549C207.537 86.3369 207.609 86.4271 207.609 86.8781Z" fill="black"/>
<path d="M143.564 84.4967C143.564 88.3033 143.762 89.3677 144.592 90.1615C145.224 90.7569 145.909 91.0275 146.811 91.0275C147.785 91.0275 148.417 90.7569 149.211 89.9811L149.878 89.3317V90.0894V90.8471H151.412H152.945V85.9761V81.105H151.412H149.878V84.172C149.878 87.4374 149.734 88.0868 148.994 88.5018C148.543 88.7363 147.785 88.7363 147.352 88.5018C146.775 88.1951 146.631 87.293 146.631 84.1539V81.105H145.097H143.564V84.4967Z" fill="black"/>
<path d="M163.228 85.976V90.8471H164.762H166.295V85.976V81.105H164.762H163.228V85.976Z" fill="black"/>
</mask>
<g mask="url(#mask0_931_201)">
<rect x="1" y="1" width="222" height="104" fill="white"/>
</g>
</svg>
