<?xml version="1.0" standalone="no"?>
<!DOCTYPE svg PUBLIC "-//W3C//DTD SVG 20010904//EN"
 "http://www.w3.org/TR/2001/REC-SVG-20010904/DTD/svg10.dtd">
<svg version="1.0" xmlns="http://www.w3.org/2000/svg"
 width="1419.000000pt" height="1419.000000pt" viewBox="0 0 1419.000000 1419.000000"
 preserveAspectRatio="xMidYMid meet">

<g transform="translate(0.000000,1419.000000) scale(0.100000,-0.100000)"
fill="#000000" stroke="none">
<path d="M5400 9724 c-8 -2 -112 -10 -230 -19 -118 -8 -267 -20 -330 -25 -292
-24 -400 -33 -930 -75 -311 -24 -770 -60 -1020 -80 -250 -19 -509 -39 -575
-45 -66 -5 -205 -17 -310 -25 -112 -9 -223 -24 -270 -37 -103 -27 -222 -86
-317 -157 -107 -80 -117 -89 -174 -156 -145 -170 -238 -391 -249 -594 -3 -59
1 -121 70 -1061 8 -107 21 -289 30 -405 8 -115 17 -237 20 -270 3 -33 16 -217
30 -410 14 -192 34 -469 45 -615 11 -146 31 -418 45 -605 25 -336 44 -459 81
-545 37 -84 90 -178 132 -234 48 -64 210 -226 226 -226 5 0 17 -7 25 -14 29
-27 167 -94 247 -121 80 -27 262 -57 299 -50 11 3 85 9 165 15 148 11 543 42
769 60 325 26 673 53 1076 85 242 19 496 39 565 45 69 5 242 19 385 30 660 51
653 50 785 97 191 68 383 221 493 394 46 73 114 208 121 239 2 14 12 48 20 75
9 28 19 82 22 120 3 39 7 76 10 83 2 7 -1 68 -6 135 -11 134 -22 287 -45 597
-32 438 -106 1441 -115 1560 -5 69 -30 409 -55 755 -25 347 -50 644 -55 661
-6 17 -10 38 -10 47 0 9 -12 51 -27 94 -49 142 -140 280 -267 405 -50 49 -94
88 -100 88 -5 0 -17 6 -25 14 -34 29 -176 98 -259 125 -48 15 -121 31 -162 35
-41 4 -84 9 -95 11 -11 2 -27 1 -35 -1z m-1350 -1024 c0 -5 -35 -36 -77 -69
-43 -32 -103 -85 -134 -118 -70 -73 -191 -233 -186 -247 3 -10 119 -21 254
-25 34 -1 46 -6 59 -27 15 -22 15 -27 3 -34 -27 -17 -52 -35 -65 -48 -8 -7
-18 -10 -24 -7 -5 3 -10 1 -10 -5 0 -6 -7 -14 -17 -17 -9 -4 -28 -17 -42 -29
-14 -13 -62 -52 -106 -88 -119 -95 -348 -325 -376 -378 -6 -11 -18 -27 -27
-37 -33 -34 -63 -77 -80 -111 -21 -45 -40 -59 -78 -60 -41 0 -76 35 -115 116
-16 35 -30 67 -30 71 0 5 -7 19 -15 31 -9 13 -13 26 -10 29 2 3 -4 14 -14 25
-10 11 -16 26 -14 33 3 7 1 16 -5 19 -11 7 -71 192 -74 226 -1 11 -4 20 -7 20
-4 0 -7 6 -7 13 -3 39 -8 67 -13 67 -3 0 -5 10 -6 23 0 12 -3 42 -6 67 -11 79
16 96 173 108 67 6 115 14 117 20 9 29 169 226 226 279 80 76 176 149 201 156
38 9 505 7 505 -3z m-1305 -565 c1 -17 5 -36 9 -43 8 -13 11 -25 20 -88 4 -21
12 -42 19 -46 6 -4 9 -8 5 -8 -10 0 21 -99 39 -127 8 -13 12 -23 7 -23 -4 0
-3 -5 4 -12 7 -7 12 -22 12 -35 0 -13 5 -23 10 -23 6 0 10 -8 10 -19 0 -10 7
-24 15 -31 8 -7 13 -16 10 -20 -3 -4 2 -13 10 -20 8 -7 17 -27 21 -46 3 -19
10 -34 14 -34 6 0 31 -43 35 -60 0 -3 13 -28 27 -55 21 -41 24 -55 15 -70 -22
-41 -38 -45 -237 -59 -25 -2 -45 -4 -45 -6 0 -2 -13 -4 -90 -14 -27 -4 -84
-16 -125 -28 -41 -11 -81 -21 -87 -21 -7 0 -13 -5 -13 -10 0 -5 -7 -7 -15 -3
-8 3 -15 1 -15 -5 0 -6 -4 -8 -8 -5 -4 2 -29 -6 -55 -19 -26 -14 -47 -22 -47
-19 0 3 -18 -8 -39 -25 -32 -26 -40 -28 -45 -15 -11 29 -6 61 30 179 l35 117
-20 19 c-11 11 -24 18 -28 17 -4 -1 -35 11 -68 26 -33 15 -71 29 -85 31 -14 1
-28 3 -31 4 -23 4 -13 79 43 317 19 80 68 206 86 221 16 14 45 6 35 -10 -3 -6
-1 -7 5 -3 12 7 102 -31 114 -48 4 -6 8 -8 8 -4 0 4 16 -1 35 -12 20 -11 40
-20 46 -20 5 0 27 -11 50 -25 38 -25 59 -26 59 -3 0 12 65 99 120 161 57 64
102 73 105 22z m1427 -2 c14 -4 30 -29 33 -53 2 -20 29 -70 38 -70 6 0 8 -3 4
-6 -3 -4 0 -19 9 -35 8 -16 14 -32 14 -36 0 -13 137 -4 180 11 8 3 31 8 50 11
169 27 227 35 237 30 7 -2 13 0 13 5 0 5 10 10 23 10 46 0 64 2 130 16 38 8
101 17 140 21 84 6 97 8 117 16 37 14 110 -5 110 -29 0 -7 8 -17 17 -23 10 -5
15 -13 11 -16 -6 -7 -1 -15 29 -49 7 -8 10 -16 7 -19 -3 -3 3 -14 13 -25 33
-37 43 -51 43 -62 0 -6 7 -13 15 -16 8 -4 15 -15 15 -25 0 -10 6 -19 14 -19 7
0 17 -8 20 -17 13 -35 37 -73 47 -73 5 0 9 -6 9 -14 0 -8 6 -21 13 -28 28 -30
57 -72 57 -84 0 -15 -30 -26 -80 -30 -19 -1 -69 -5 -110 -8 -41 -4 -111 -8
-155 -11 -44 -2 -80 -5 -80 -6 0 0 -16 -2 -35 -4 -99 -9 -188 -17 -215 -20
-16 -1 -58 -6 -92 -9 -34 -4 -85 -11 -114 -16 -28 -5 -55 -7 -60 -4 -5 3 -15
2 -21 -3 -7 -4 -17 -8 -23 -9 -5 0 -16 -2 -23 -2 -9 -2 -10 -6 -2 -14 21 -26
60 -89 60 -99 0 -5 7 -12 15 -15 8 -4 15 -12 15 -19 0 -7 13 -28 30 -46 16
-19 30 -40 30 -46 0 -7 7 -13 15 -13 21 0 19 -46 -3 -68 -16 -16 -23 -16 -72
-5 -406 94 -927 179 -1210 198 -134 10 -173 15 -187 26 -15 13 -18 89 -3 89 6
0 10 6 10 13 0 7 9 22 19 34 10 11 26 34 35 51 9 17 24 36 34 41 10 5 24 21
32 35 7 14 17 26 21 26 11 0 109 99 109 110 0 6 4 10 10 10 9 0 36 19 69 50 9
8 30 25 46 38 71 55 100 78 121 98 23 22 54 38 67 36 4 -1 7 4 7 11 0 7 12 18
28 25 50 23 72 37 72 44 0 5 7 8 15 8 8 0 15 5 15 10 0 6 6 10 14 10 8 0 16 7
20 15 3 8 12 15 19 15 8 0 22 9 31 19 19 20 60 31 86 23 8 -2 23 -6 32 -9z
m-1129 -871 c25 -22 21 -44 -23 -134 -22 -45 -40 -87 -40 -93 0 -5 -12 -32
-25 -60 -14 -27 -25 -58 -25 -67 0 -9 -4 -19 -9 -22 -4 -3 -14 -27 -21 -53 -7
-27 -17 -54 -23 -60 -5 -7 -7 -13 -4 -13 3 0 1 -15 -4 -32 -6 -18 -12 -37 -13
-43 -15 -55 -29 -102 -34 -110 -3 -5 -7 -16 -8 -25 -1 -8 -7 -44 -14 -80 -6
-36 -13 -76 -15 -90 -2 -14 -4 -25 -5 -25 -1 0 -3 -12 -5 -27 -2 -16 -6 -37
-10 -47 -10 -32 -15 -63 -22 -126 -10 -98 -44 -102 -104 -12 -22 34 -45 64
-50 65 -5 2 -9 10 -9 17 0 7 -16 37 -35 67 -32 48 -36 51 -41 31 -4 -13 -9
-23 -13 -23 -3 0 -18 -21 -31 -47 -14 -25 -35 -57 -48 -71 -12 -14 -32 -46
-45 -71 -12 -25 -26 -49 -30 -52 -5 -3 -9 -10 -9 -15 -1 -16 -21 -54 -28 -54
-4 0 -10 -8 -13 -17 -19 -57 -102 -183 -121 -183 -13 0 -36 41 -36 65 0 7 -3
15 -7 17 -11 4 -54 123 -63 173 -4 22 -14 55 -21 73 -12 29 -10 41 20 135 19
56 40 116 47 132 28 65 74 191 74 203 0 6 4 12 9 12 5 0 12 13 16 30 4 16 11
32 16 35 9 6 42 73 53 112 7 23 -9 82 -45 161 -44 96 -8 170 104 210 26 9 47
20 47 25 0 4 5 5 10 2 6 -3 10 -1 10 6 0 7 3 10 6 7 3 -4 20 0 39 8 18 7 46
16 63 19 17 3 43 10 58 15 15 6 47 13 72 16 24 3 54 9 65 13 12 4 54 8 92 10
39 2 72 5 74 7 3 3 39 4 80 3 52 -1 81 -6 94 -17z m557 -18 c19 -2 55 -5 80
-7 25 -2 51 -6 56 -10 6 -3 41 -9 77 -13 37 -4 67 -10 67 -15 0 -4 12 -8 28
-7 15 0 38 -2 52 -6 14 -4 102 -20 195 -37 94 -16 184 -33 200 -38 17 -5 50
-13 75 -17 25 -3 48 -11 51 -16 3 -5 27 -10 52 -11 26 -1 47 -5 47 -8 0 -4 28
-12 63 -19 67 -12 100 -33 111 -68 9 -28 -1 -62 -19 -62 -7 0 -15 -10 -18 -22
-4 -12 -9 -19 -12 -16 -8 8 -43 -24 -38 -34 2 -5 -1 -8 -8 -8 -14 0 -46 -36
-54 -61 -4 -11 -11 -16 -18 -12 -8 4 -7 1 1 -9 7 -9 24 -19 37 -22 14 -4 25
-10 25 -15 0 -5 14 -14 30 -21 17 -7 30 -16 30 -21 0 -5 7 -6 15 -3 8 4 15 2
15 -4 0 -5 13 -15 29 -22 16 -6 32 -18 35 -26 3 -8 12 -14 21 -14 8 0 15 -4
15 -10 0 -5 9 -10 20 -10 11 0 23 -7 26 -15 4 -8 11 -15 17 -15 12 0 90 -51
95 -62 2 -5 9 -8 16 -8 7 0 53 -27 104 -60 50 -33 97 -60 105 -60 8 0 17 -7
21 -15 3 -8 10 -15 16 -15 6 0 20 -9 32 -20 12 -11 30 -20 40 -20 10 0 18 -7
18 -15 0 -8 8 -15 19 -15 10 0 23 -6 29 -13 6 -7 33 -24 61 -37 28 -14 51 -31
51 -37 0 -7 9 -13 19 -13 11 0 29 -13 40 -29 19 -27 29 -53 15 -38 -3 3 -16
-5 -29 -19 -12 -13 -25 -24 -28 -24 -14 0 -73 -68 -69 -79 2 -6 0 -10 -5 -9
-5 2 -19 -7 -33 -19 -13 -13 -27 -23 -30 -23 -4 0 -12 -12 -18 -26 -7 -14 -16
-23 -20 -20 -5 3 -17 -12 -27 -32 -11 -20 -27 -45 -36 -54 -9 -9 -19 -21 -20
-27 -7 -16 -67 -20 -80 -5 -6 8 -16 14 -21 14 -8 0 -19 8 -51 36 -7 6 -22 14
-34 18 -12 4 -24 13 -26 20 -3 8 -19 17 -35 21 -17 3 -38 15 -48 26 -9 10 -23
19 -31 19 -7 0 -13 5 -13 10 0 6 -7 10 -15 10 -8 0 -36 16 -61 35 -26 20 -61
42 -79 50 -18 7 -42 22 -52 32 -10 10 -40 28 -66 41 -26 13 -47 26 -47 30 0 4
-19 16 -43 27 -23 11 -44 22 -47 26 -3 3 -23 14 -45 24 -22 11 -53 31 -69 47
-17 15 -40 28 -52 28 -12 0 -24 7 -28 15 -8 23 -43 18 -51 -7 -4 -13 -8 -25
-9 -28 -1 -3 -10 -20 -20 -38 -9 -19 -15 -36 -12 -39 3 -3 0 -15 -6 -26 -6
-12 -12 -28 -13 -37 -9 -59 -32 -77 -87 -65 -35 8 -68 38 -91 81 -14 26 -33
49 -113 136 -13 14 -24 29 -24 32 0 9 -86 120 -104 136 -9 7 -16 17 -16 22 0
5 -6 15 -12 22 -33 34 -58 67 -58 76 0 6 -6 13 -14 16 -8 3 -17 16 -20 30 -4
13 -11 24 -16 24 -6 0 -10 7 -10 15 0 8 -6 15 -12 15 -7 0 -24 17 -38 38 -28
41 -32 47 -60 81 -11 13 -20 30 -20 38 0 7 -7 16 -15 19 -8 4 -15 13 -15 20 0
8 -7 17 -15 20 -8 4 -15 11 -15 18 0 6 -14 27 -30 46 -46 53 -50 58 -50 69 0
5 -11 19 -25 32 -13 13 -25 28 -25 32 0 4 -18 35 -39 68 -35 53 -38 64 -29 89
5 16 17 31 26 34 17 5 244 -2 312 -10z m-395 -69 c21 -30 42 -55 46 -55 4 0
10 -8 13 -18 6 -18 64 -113 91 -147 8 -10 15 -24 15 -30 0 -5 12 -21 25 -34
14 -13 25 -29 25 -36 0 -8 14 -29 30 -47 17 -18 30 -38 30 -44 0 -7 7 -14 15
-18 8 -3 15 -12 15 -21 0 -8 4 -15 8 -15 5 0 17 -18 28 -40 10 -22 25 -40 32
-40 6 0 12 -9 12 -20 0 -11 7 -23 15 -26 8 -4 15 -13 15 -21 0 -7 11 -24 25
-37 14 -13 25 -27 25 -32 0 -5 10 -20 23 -34 13 -14 32 -40 42 -57 11 -18 23
-33 27 -33 4 0 8 -5 8 -11 0 -7 10 -21 23 -33 12 -12 29 -34 37 -51 8 -16 22
-37 30 -46 32 -34 50 -60 50 -69 0 -6 4 -10 8 -10 5 0 15 -11 22 -25 7 -14 19
-25 27 -25 7 0 14 -8 14 -17 5 -66 4 -75 -12 -84 -11 -6 -70 -5 -155 1 -76 5
-139 8 -140 7 -2 -1 30 -92 70 -202 80 -218 181 -467 273 -670 32 -71 57 -138
55 -147 -3 -17 -23 -18 -246 -18 -178 0 -247 3 -259 13 -39 29 -358 794 -423
1015 -4 14 -38 15 -157 2 -97 -10 -116 -5 -138 38 -13 23 -20 142 -8 142 3 0
5 16 6 35 1 50 13 178 17 184 2 3 7 29 11 56 4 28 9 59 11 70 2 11 6 36 10 55
3 19 8 42 11 50 4 8 5 18 5 23 -4 15 41 183 59 224 10 24 19 50 19 59 0 8 5
24 11 35 6 11 12 29 14 41 3 11 13 39 23 62 11 22 26 56 33 74 8 17 17 32 21
32 5 0 8 6 8 13 0 20 21 37 46 37 15 0 33 -17 59 -55z"/>
<path d="M8330 8829 c-401 -46 -679 -209 -809 -474 -42 -88 -61 -165 -68 -285
-13 -240 55 -429 211 -585 123 -123 233 -188 550 -325 195 -85 311 -151 379
-218 62 -60 88 -111 94 -183 8 -78 -29 -155 -96 -205 -145 -107 -451 -123
-723 -38 -104 33 -263 113 -345 176 l-63 47 0 -308 0 -309 75 -31 c348 -145
934 -160 1291 -34 225 80 396 236 473 431 48 121 64 324 37 472 -55 303 -261
497 -741 700 -202 85 -315 150 -391 225 -51 50 -75 81 -83 110 -46 168 68 297
301 342 208 39 535 -20 733 -132 l75 -43 0 287 0 288 -87 26 c-228 68 -561 95
-813 66z"/>
<path d="M9810 7405 l0 -1385 820 0 820 0 0 255 0 255 -510 0 -510 0 0 1130 0
1130 -310 0 -310 0 0 -1385z"/>
<path d="M8610 5120 l0 -400 85 0 85 0 0 400 0 400 -85 0 -85 0 0 -400z"/>
<path d="M10025 5508 c-53 -31 -60 -85 -16 -129 22 -21 39 -29 66 -29 68 0
120 82 82 131 -28 37 -92 50 -132 27z"/>
<path d="M12740 5120 l0 -400 85 0 85 0 0 30 0 31 40 -32 c71 -57 186 -50 259
17 100 90 121 312 40 424 -70 97 -214 108 -301 23 l-38 -37 0 172 0 172 -85 0
-85 0 0 -400z m339 4 c68 -48 68 -201 0 -258 -45 -38 -92 -35 -135 8 -33 33
-34 37 -34 108 0 109 34 156 115 157 17 1 41 -6 54 -15z"/>
<path d="M7503 5476 c-139 -35 -208 -144 -173 -270 18 -65 69 -111 185 -166
113 -54 148 -84 143 -125 -10 -87 -187 -98 -302 -20 l-37 25 3 -88 3 -87 70
-18 c138 -36 311 -11 384 56 60 56 78 165 40 245 -26 54 -75 90 -196 147 -126
59 -155 111 -90 159 41 30 162 29 230 -1 l47 -22 0 75 c0 72 -1 75 -27 85 -44
17 -221 20 -280 5z"/>
<path d="M11630 5100 l0 -380 220 0 220 0 0 70 0 70 -135 0 -135 0 0 310 0
310 -85 0 -85 0 0 -380z"/>
<path d="M9688 5397 l-78 -22 0 -57 0 -58 -45 0 -45 0 0 -60 0 -60 44 0 44 0
4 -164 c3 -179 7 -192 71 -240 36 -27 130 -33 180 -13 37 16 37 16 37 77 0 57
-1 60 -19 50 -30 -16 -59 -12 -81 10 -18 18 -20 33 -20 150 l0 130 60 0 60 0
0 60 0 60 -60 0 -60 0 0 80 c0 44 -3 80 -7 79 -5 -1 -43 -11 -85 -22z"/>
<path d="M8125 5261 c-137 -34 -215 -150 -202 -302 14 -165 134 -260 313 -246
173 13 274 131 262 306 -11 155 -124 253 -287 250 -31 -1 -69 -4 -86 -8z m145
-134 c52 -26 74 -121 49 -210 -24 -86 -155 -105 -205 -30 -21 33 -29 122 -15
166 25 73 104 108 171 74z"/>
<path d="M10465 5261 c-137 -34 -215 -150 -202 -302 14 -165 134 -260 313
-246 173 13 274 131 262 306 -11 155 -124 253 -287 250 -31 -1 -69 -4 -86 -8z
m145 -134 c52 -26 74 -121 49 -210 -24 -86 -155 -105 -205 -30 -21 33 -29 122
-15 166 25 73 104 108 171 74z"/>
<path d="M11224 5259 c-18 -5 -48 -27 -68 -49 l-36 -40 0 45 0 45 -85 0 -85 0
0 -270 0 -270 85 0 85 0 0 164 c0 90 5 177 11 194 22 63 97 82 140 36 23 -25
24 -31 27 -210 l3 -184 85 0 85 0 -3 213 c-3 199 -4 215 -26 255 -37 69 -126
98 -218 71z"/>
<path d="M12295 5263 c-11 -2 -44 -11 -72 -19 l-53 -15 0 -63 0 -63 50 25 c30
15 74 26 114 29 59 5 66 4 90 -20 14 -14 26 -35 26 -46 0 -16 -12 -20 -87 -31
-112 -15 -146 -26 -185 -58 -58 -49 -74 -131 -39 -208 34 -75 139 -105 227
-65 22 10 50 31 62 46 l22 28 0 -42 0 -41 80 0 80 0 0 181 c0 103 -5 200 -12
226 -15 61 -70 116 -131 131 -45 12 -132 14 -172 5z m155 -323 c0 -65 -45
-110 -110 -110 -59 0 -91 67 -51 104 17 16 81 32 139 35 18 1 22 -4 22 -29z"/>
<path d="M8900 5072 c0 -211 11 -270 57 -314 35 -33 73 -48 123 -48 54 0 89
15 133 58 l37 36 0 -42 0 -42 85 0 85 0 0 270 0 270 -85 0 -85 0 0 -170 c0
-181 -8 -217 -49 -240 -25 -13 -67 -13 -91 0 -32 17 -40 67 -40 241 l0 169
-85 0 -85 0 0 -188z"/>
<path d="M9990 4990 l0 -270 85 0 85 0 0 270 0 270 -85 0 -85 0 0 -270z"/>
</g>
</svg>
