<svg width="33" height="16" viewBox="0 0 33 16" fill="none" xmlns="http://www.w3.org/2000/svg">
<mask id="mask0_1094_135" style="mask-type:alpha" maskUnits="userSpaceOnUse" x="0" y="0" width="33" height="16">
<path d="M12.4495 0.566787C12.4287 0.571988 12.1583 0.592794 11.8514 0.6162C11.5445 0.637005 11.157 0.668213 10.9932 0.681217C10.2338 0.743633 9.95289 0.767039 8.57453 0.876268C7.76572 0.938684 6.57201 1.03231 5.92184 1.08432C5.27167 1.13373 4.59809 1.18575 4.42645 1.20135C4.25481 1.21436 3.89331 1.24556 3.62024 1.26637C3.32896 1.28978 3.04029 1.32879 2.91806 1.36259C2.65019 1.43281 2.34071 1.58625 2.09364 1.7709C1.81537 1.97896 1.78936 2.00236 1.64112 2.17661C1.26402 2.61872 1.02216 3.19347 0.993554 3.72141C0.985752 3.87485 0.996155 4.03609 1.1756 6.48073C1.19641 6.759 1.23022 7.23233 1.25362 7.53401C1.27443 7.83308 1.29783 8.15037 1.30564 8.23619C1.31344 8.32201 1.34725 8.80054 1.38366 9.30247C1.42007 9.8018 1.47208 10.5222 1.50069 10.9019C1.52929 11.2816 1.58131 11.989 1.61772 12.4753C1.68273 13.3491 1.73215 13.669 1.82837 13.8927C1.9246 14.1111 2.06243 14.3556 2.17166 14.5012C2.29649 14.6677 2.7178 15.089 2.75941 15.089C2.77242 15.089 2.80363 15.1072 2.82443 15.1254C2.89985 15.1956 3.25875 15.3699 3.4668 15.4401C3.67485 15.5103 4.14818 15.5883 4.2444 15.5701C4.27301 15.5623 4.46546 15.5467 4.67351 15.5311C5.05842 15.5025 6.08568 15.4219 6.67344 15.3751C7.51866 15.3074 8.42369 15.2372 9.47177 15.154C10.1011 15.1046 10.7617 15.0526 10.9412 15.037C11.1206 15.024 11.5705 14.9876 11.9424 14.9589C13.6589 14.8263 13.6407 14.8289 13.9839 14.7067C14.4807 14.5298 14.98 14.1319 15.2661 13.682C15.3857 13.4922 15.5626 13.1411 15.5808 13.0605C15.586 13.024 15.612 12.9356 15.6328 12.8654C15.6562 12.7926 15.6822 12.6521 15.69 12.5533C15.6978 12.4519 15.7082 12.3557 15.716 12.3375C15.7212 12.3193 15.7134 12.1606 15.7004 11.9864C15.6718 11.6379 15.6432 11.24 15.5834 10.4338C15.5001 9.29467 15.3077 6.68618 15.2843 6.3767C15.2713 6.19726 15.2063 5.31303 15.1412 4.41319C15.0762 3.51076 15.0112 2.73835 14.9982 2.69414C14.9826 2.64993 14.9722 2.59532 14.9722 2.57191C14.9722 2.5485 14.941 2.43928 14.902 2.32745C14.7746 1.95815 14.5379 1.59926 14.2076 1.27417C14.0776 1.14674 13.9631 1.04531 13.9475 1.04531C13.9345 1.04531 13.9033 1.02971 13.8825 1.0089C13.7941 0.933483 13.4248 0.754036 13.2089 0.683817C13.0841 0.644807 12.8943 0.603196 12.7876 0.592794C12.681 0.582391 12.5692 0.569387 12.5406 0.564186C12.512 0.558985 12.4704 0.561585 12.4495 0.566787ZM8.93863 3.22988C8.93863 3.24289 8.8476 3.32351 8.73838 3.40933C8.62655 3.49255 8.47051 3.63039 8.38988 3.71621C8.20784 3.90606 7.89316 4.32217 7.90616 4.35858C7.91396 4.38458 8.21564 4.41319 8.56673 4.42359C8.65515 4.4262 8.68636 4.4392 8.72017 4.49381C8.75918 4.55103 8.75918 4.56403 8.72797 4.58224C8.65775 4.62645 8.59274 4.67326 8.55893 4.70707C8.53812 4.72527 8.51212 4.73308 8.49651 4.72527C8.48351 4.71747 8.47051 4.72267 8.47051 4.73828C8.47051 4.75388 8.4523 4.77469 8.42629 4.78249C8.40289 4.79289 8.35348 4.8267 8.31707 4.85791C8.28066 4.89172 8.15582 4.99314 8.04139 5.08677C7.73191 5.33383 7.13636 5.93199 7.06354 6.06982C7.04793 6.09843 7.01673 6.14004 6.99332 6.16605C6.9075 6.25447 6.82948 6.3663 6.78527 6.45472C6.73065 6.57175 6.68124 6.60816 6.58241 6.61077C6.47579 6.61077 6.38476 6.51974 6.28333 6.30909C6.24172 6.21806 6.20531 6.13484 6.20531 6.12444C6.20531 6.11143 6.18711 6.07503 6.1663 6.04382C6.1429 6.01001 6.1325 5.9762 6.1403 5.9684C6.1455 5.9606 6.12989 5.93199 6.10389 5.90338C6.07788 5.87477 6.06228 5.83576 6.06748 5.81756C6.07528 5.79935 6.07008 5.77595 6.05448 5.76814C6.02587 5.74994 5.86983 5.26881 5.86202 5.18039C5.85942 5.15178 5.85162 5.12838 5.84382 5.12838C5.83342 5.12838 5.82562 5.11277 5.82562 5.09457C5.81781 4.99314 5.80481 4.92032 5.79181 4.92032C5.784 4.92032 5.7788 4.89432 5.7762 4.86051C5.7762 4.8293 5.7684 4.75128 5.7606 4.68626C5.73199 4.48081 5.80221 4.4366 6.21052 4.40539C6.38476 4.38979 6.50959 4.36898 6.5148 4.35338C6.5382 4.27796 6.95431 3.76562 7.10255 3.62779C7.3106 3.43013 7.56027 3.24029 7.62529 3.22208C7.72411 3.19867 8.93863 3.20388 8.93863 3.22988ZM5.54474 4.69927C5.54734 4.74348 5.55775 4.79289 5.56815 4.8111C5.58895 4.8449 5.59676 4.87611 5.62016 5.03995C5.63056 5.09457 5.65137 5.14918 5.66957 5.15959C5.68518 5.16999 5.69298 5.18039 5.68258 5.18039C5.65657 5.18039 5.73719 5.43786 5.784 5.51068C5.80481 5.54449 5.81521 5.57049 5.80221 5.57049C5.79181 5.57049 5.79441 5.5835 5.81261 5.6017C5.83082 5.61991 5.84382 5.65892 5.84382 5.69273C5.84382 5.72653 5.85682 5.75254 5.86983 5.75254C5.88543 5.75254 5.89583 5.77335 5.89583 5.80195C5.89583 5.82796 5.91404 5.86437 5.93484 5.88257C5.95565 5.90078 5.96865 5.92419 5.96085 5.93459C5.95305 5.94499 5.96605 5.9684 5.98686 5.9866C6.00766 6.00481 6.03107 6.05682 6.04147 6.10623C6.04927 6.15565 6.06748 6.19466 6.07788 6.19466C6.09349 6.19466 6.1585 6.30649 6.16891 6.3507C6.16891 6.3585 6.20271 6.42352 6.23912 6.49373C6.29374 6.60036 6.30154 6.63677 6.27813 6.67578C6.22092 6.78241 6.17931 6.79281 5.66177 6.82922C5.59676 6.83442 5.54474 6.83962 5.54474 6.84483C5.54474 6.85003 5.51093 6.85523 5.31068 6.88124C5.24046 6.89164 5.09222 6.92285 4.9856 6.95405C4.87897 6.98266 4.77494 7.00867 4.75934 7.00867C4.74113 7.00867 4.72553 7.02167 4.72553 7.03468C4.72553 7.04768 4.70732 7.05288 4.68652 7.04248C4.66571 7.03468 4.64751 7.03988 4.64751 7.05548C4.64751 7.07109 4.63711 7.07629 4.6267 7.06848C4.6163 7.06328 4.55128 7.08409 4.48367 7.1179C4.41605 7.15431 4.36143 7.17511 4.36143 7.16731C4.36143 7.15951 4.31462 7.18812 4.26001 7.23233C4.17678 7.29995 4.15598 7.30515 4.14298 7.27134C4.11437 7.19592 4.12737 7.1127 4.221 6.80582L4.31202 6.50154L4.26001 6.45212C4.2314 6.42352 4.19759 6.40531 4.18719 6.40791C4.17678 6.41051 4.09616 6.3793 4.01034 6.34029C3.92452 6.30128 3.82569 6.26487 3.78928 6.25967C3.75287 6.25707 3.71646 6.25187 3.70866 6.24927C3.64885 6.23887 3.67485 6.04382 3.82049 5.42486C3.8699 5.2168 3.99734 4.88912 4.04415 4.85011C4.08576 4.8137 4.16118 4.8345 4.13517 4.87611C4.12737 4.89172 4.13257 4.89432 4.14818 4.88391C4.17939 4.86571 4.41345 4.96454 4.44465 5.00875C4.45506 5.02435 4.46546 5.02955 4.46546 5.01915C4.46546 5.00875 4.50707 5.02175 4.55648 5.05036C4.6085 5.07896 4.66051 5.10237 4.67612 5.10237C4.68912 5.10237 4.74633 5.13098 4.80615 5.16739C4.90498 5.23241 4.95959 5.23501 4.95959 5.17519C4.95959 5.14398 5.12863 4.91772 5.27167 4.75648C5.41991 4.59004 5.53694 4.56663 5.54474 4.69927ZM9.25591 4.70447C9.29232 4.71487 9.33393 4.77989 9.34173 4.8423C9.34693 4.89432 9.41715 5.02435 9.44056 5.02435C9.45616 5.02435 9.46136 5.03215 9.45096 5.03995C9.44316 5.05036 9.45096 5.08937 9.47437 5.13098C9.49517 5.17259 9.51078 5.2142 9.51078 5.2246C9.51078 5.25841 9.86707 5.23501 9.9789 5.196C9.99971 5.18819 10.0595 5.17519 10.1089 5.16739C10.5484 5.09717 10.6993 5.07636 10.7253 5.08937C10.7435 5.09457 10.7591 5.08937 10.7591 5.07636C10.7591 5.06336 10.7851 5.05036 10.8189 5.05036C10.9386 5.05036 10.9854 5.04516 11.157 5.00875C11.2558 4.98794 11.4197 4.96454 11.5211 4.95413C11.7396 4.93853 11.7734 4.93333 11.8254 4.91252C11.9216 4.87611 12.1115 4.92552 12.1115 4.98794C12.1115 5.00615 12.1323 5.03215 12.1557 5.04776C12.1817 5.06076 12.1947 5.08157 12.1843 5.08937C12.1687 5.10757 12.1817 5.12838 12.2597 5.2168C12.2779 5.23761 12.2857 5.25841 12.2779 5.26621C12.2701 5.27402 12.2857 5.30262 12.3117 5.33123C12.3975 5.42746 12.4235 5.46387 12.4235 5.49247C12.4235 5.50808 12.4417 5.52628 12.4625 5.53408C12.4834 5.54449 12.5016 5.57309 12.5016 5.5991C12.5016 5.62511 12.5172 5.64851 12.538 5.64851C12.5562 5.64851 12.5822 5.66932 12.59 5.69273C12.6238 5.78375 12.6862 5.88257 12.7122 5.88257C12.7252 5.88257 12.7356 5.89818 12.7356 5.91898C12.7356 5.93979 12.7512 5.9736 12.7694 5.9918C12.8422 6.06982 12.9177 6.17905 12.9177 6.21026C12.9177 6.24927 12.8396 6.27788 12.7096 6.28828C12.6602 6.29088 12.5302 6.30128 12.4235 6.30909C12.3169 6.31949 12.1349 6.32989 12.0204 6.33769C11.906 6.3429 11.8124 6.3507 11.8124 6.3533C11.8124 6.3533 11.7708 6.3585 11.7214 6.3637C11.4639 6.38711 11.2324 6.40791 11.1622 6.41571C11.1206 6.41831 11.0114 6.43132 10.9229 6.43912C10.8345 6.44952 10.7019 6.46773 10.6265 6.48073C10.5536 6.49373 10.4834 6.49894 10.4704 6.49113C10.4574 6.48333 10.4314 6.48593 10.4158 6.49894C10.3976 6.50934 10.3716 6.51974 10.356 6.52234C10.343 6.52234 10.3144 6.52754 10.2962 6.52754C10.2728 6.53274 10.2702 6.54315 10.291 6.56395C10.3456 6.63157 10.447 6.79541 10.447 6.82142C10.447 6.83442 10.4652 6.85263 10.486 6.86043C10.5068 6.87083 10.525 6.89164 10.525 6.90984C10.525 6.92805 10.5589 6.98266 10.6031 7.02947C10.6447 7.07889 10.6811 7.1335 10.6811 7.14911C10.6811 7.16731 10.6993 7.18291 10.7201 7.18291C10.7747 7.18291 10.7695 7.30255 10.7123 7.35976C10.6707 7.40137 10.6525 7.40137 10.525 7.37276C9.46917 7.1283 8.11421 6.90724 7.37822 6.85783C7.02973 6.83182 6.9283 6.81882 6.89189 6.79021C6.85288 6.7564 6.84508 6.55875 6.88409 6.55875C6.8997 6.55875 6.9101 6.54315 6.9101 6.52494C6.9101 6.50674 6.9335 6.46773 6.95951 6.43652C6.98552 6.40791 7.02713 6.3481 7.05054 6.30388C7.07394 6.25967 7.11295 6.21026 7.13896 6.19726C7.16497 6.18425 7.20137 6.14264 7.22218 6.10623C7.24038 6.06982 7.26639 6.03862 7.27679 6.03862C7.3054 6.03862 7.56027 5.78115 7.56027 5.75254C7.56027 5.73694 7.57067 5.72653 7.58628 5.72653C7.60968 5.72653 7.6799 5.67712 7.76572 5.5965C7.78913 5.57569 7.84374 5.53148 7.88535 5.49767C8.07 5.35464 8.14542 5.29482 8.20004 5.24281C8.25985 5.18559 8.34047 5.14398 8.37428 5.14918C8.38468 5.15178 8.39249 5.13878 8.39249 5.12058C8.39249 5.10237 8.42369 5.07376 8.4653 5.05556C8.59534 4.99574 8.65255 4.95933 8.65255 4.94113C8.65255 4.92813 8.67076 4.92032 8.69156 4.92032C8.71237 4.92032 8.73057 4.90732 8.73057 4.89432C8.73057 4.87871 8.74618 4.86831 8.76698 4.86831C8.78779 4.86831 8.80859 4.85011 8.819 4.8293C8.8268 4.80849 8.85021 4.79029 8.86841 4.79029C8.88922 4.79029 8.92562 4.76688 8.94903 4.74088C8.99844 4.68886 9.10507 4.66026 9.17269 4.68106C9.19349 4.68626 9.2325 4.69667 9.25591 4.70447ZM6.31974 6.96966C6.38476 7.02687 6.37436 7.08409 6.25993 7.31815C6.20271 7.43518 6.1559 7.54441 6.1559 7.56001C6.1559 7.57302 6.12469 7.64323 6.09088 7.71605C6.05448 7.78627 6.02587 7.86689 6.02587 7.8903C6.02587 7.91371 6.01546 7.93971 6.00246 7.94751C5.99206 7.95532 5.96605 8.01773 5.94785 8.08535C5.92964 8.15557 5.90364 8.22579 5.88803 8.24139C5.87503 8.2596 5.86983 8.2752 5.87763 8.2752C5.88543 8.2752 5.88023 8.31421 5.86723 8.35842C5.85162 8.40523 5.83602 8.45465 5.83342 8.47025C5.79441 8.61329 5.758 8.73552 5.74499 8.75633C5.73719 8.76933 5.72679 8.79794 5.72419 8.82134C5.72159 8.84215 5.70598 8.93577 5.68778 9.0294C5.67218 9.12302 5.65397 9.22705 5.64877 9.26346C5.64357 9.29987 5.63837 9.32848 5.63577 9.32848C5.63317 9.32848 5.62796 9.35968 5.62276 9.39869C5.61756 9.4403 5.60716 9.49492 5.59676 9.52093C5.57075 9.60415 5.55775 9.68477 5.53954 9.84861C5.51353 10.1035 5.42511 10.1139 5.26907 9.87982C5.21186 9.7914 5.15204 9.71338 5.13904 9.71077C5.12603 9.70557 5.11563 9.68477 5.11563 9.66656C5.11563 9.64836 5.07402 9.57034 5.02461 9.49232C4.94138 9.36749 4.93098 9.35968 4.91798 9.4117C4.90758 9.44551 4.89457 9.47151 4.88417 9.47151C4.87637 9.47151 4.83736 9.52613 4.80355 9.59374C4.76714 9.65876 4.71252 9.74198 4.67872 9.77839C4.64751 9.8148 4.59549 9.89802 4.56169 9.96304C4.53048 10.0281 4.49407 10.0905 4.48367 10.0983C4.47066 10.1061 4.46026 10.1243 4.46026 10.1373C4.45766 10.1789 4.40564 10.2777 4.38744 10.2777C4.37704 10.2777 4.36143 10.2985 4.35363 10.3219C4.30422 10.4702 4.08836 10.7979 4.03895 10.7979C4.00514 10.7979 3.94532 10.6912 3.94532 10.6288C3.94532 10.6106 3.93752 10.5898 3.92712 10.5846C3.89851 10.5742 3.78668 10.2647 3.76328 10.1347C3.75287 10.0775 3.72687 9.99165 3.70866 9.94484C3.67745 9.86942 3.68266 9.83821 3.76068 9.59374C3.81009 9.44811 3.8647 9.29207 3.88291 9.25045C3.95573 9.08141 4.07536 8.75372 4.07536 8.72252C4.07536 8.70691 4.08576 8.69131 4.09876 8.69131C4.11177 8.69131 4.12997 8.6575 4.14038 8.61329C4.15078 8.57168 4.16898 8.53007 4.18199 8.52226C4.20539 8.50666 4.29121 8.33241 4.31982 8.23099C4.33803 8.17117 4.29642 8.01773 4.20279 7.81228C4.08836 7.56261 4.18199 7.37016 4.47326 7.26614C4.54088 7.24273 4.59549 7.21412 4.59549 7.20112C4.59549 7.19072 4.6085 7.18812 4.6215 7.19592C4.63711 7.20372 4.64751 7.19852 4.64751 7.18031C4.64751 7.16211 4.65531 7.15431 4.66311 7.16211C4.67091 7.17251 4.71513 7.16211 4.76454 7.1413C4.81135 7.1231 4.88417 7.09969 4.92838 7.09189C4.97259 7.08409 5.04021 7.06588 5.07922 7.05288C5.11823 7.03728 5.20145 7.01907 5.26647 7.01127C5.32889 7.00347 5.40691 6.98786 5.43551 6.97746C5.46672 6.96706 5.57595 6.95666 5.67478 6.95145C5.7762 6.94625 5.86202 6.93845 5.86723 6.93325C5.87503 6.92545 5.96865 6.92285 6.07528 6.92545C6.21052 6.92805 6.28594 6.94105 6.31974 6.96966ZM7.76832 7.01647C7.81774 7.02167 7.91136 7.02947 7.97638 7.03468C8.04139 7.03988 8.10901 7.05028 8.12201 7.06068C8.13762 7.06848 8.22864 7.08409 8.32227 7.09449C8.41849 7.10489 8.49651 7.1205 8.49651 7.1335C8.49651 7.1439 8.52772 7.15431 8.56933 7.15171C8.60834 7.15171 8.66816 7.15691 8.70457 7.16731C8.74098 7.17771 8.96984 7.21932 9.2117 7.26354C9.45616 7.30515 9.69022 7.34936 9.73184 7.36236C9.77605 7.37536 9.86187 7.39617 9.92689 7.40657C9.9919 7.41438 10.0517 7.43518 10.0595 7.44818C10.0673 7.46119 10.1297 7.47419 10.1948 7.47679C10.2624 7.47939 10.317 7.48979 10.317 7.4976C10.317 7.508 10.3898 7.5288 10.4808 7.54701C10.6551 7.57822 10.7409 7.63283 10.7695 7.72386C10.7929 7.79667 10.7669 7.8851 10.7201 7.8851C10.7019 7.8851 10.6811 7.9111 10.6733 7.94231C10.6629 7.97352 10.6499 7.99173 10.6421 7.98392C10.6213 7.96312 10.5302 8.04634 10.5432 8.07235C10.5484 8.08535 10.5406 8.09315 10.5224 8.09315C10.486 8.09315 10.4028 8.18678 10.382 8.25179C10.3716 8.2804 10.3534 8.2934 10.3352 8.283C10.3144 8.2726 10.317 8.2804 10.3378 8.30641C10.356 8.32981 10.4002 8.35582 10.434 8.36362C10.4704 8.37403 10.499 8.38963 10.499 8.40263C10.499 8.41564 10.5354 8.43904 10.5771 8.45725C10.6213 8.47545 10.6551 8.49886 10.6551 8.51186C10.6551 8.52487 10.6733 8.52747 10.6941 8.51966C10.7149 8.50926 10.7331 8.51446 10.7331 8.53007C10.7331 8.54307 10.7669 8.56908 10.8085 8.58728C10.8501 8.60289 10.8917 8.63409 10.8995 8.6549C10.9073 8.6757 10.9307 8.69131 10.9542 8.69131C10.975 8.69131 10.9932 8.70171 10.9932 8.71732C10.9932 8.73032 11.0166 8.74332 11.0452 8.74332C11.0738 8.74332 11.105 8.76153 11.1128 8.78233C11.1232 8.80314 11.1414 8.82134 11.157 8.82134C11.1882 8.82134 11.3911 8.95398 11.4041 8.98258C11.4093 8.99559 11.4275 9.00339 11.4457 9.00339C11.4639 9.00339 11.5835 9.07361 11.7162 9.15943C11.8462 9.24525 11.9684 9.31547 11.9892 9.31547C12.01 9.31547 12.0334 9.33368 12.0438 9.35448C12.0516 9.37529 12.0698 9.39349 12.0855 9.39349C12.1011 9.39349 12.1375 9.4169 12.1687 9.44551C12.1999 9.47411 12.2467 9.49752 12.2727 9.49752C12.2987 9.49752 12.3195 9.51572 12.3195 9.53653C12.3195 9.55733 12.3403 9.57554 12.3689 9.57554C12.3949 9.57554 12.4287 9.59114 12.4443 9.60935C12.4599 9.62755 12.5302 9.67176 12.603 9.70557C12.6758 9.74198 12.7356 9.78619 12.7356 9.8018C12.7356 9.82 12.759 9.83561 12.785 9.83561C12.8136 9.83561 12.8605 9.86942 12.8891 9.91103C12.9385 9.98125 12.9645 10.0489 12.9281 10.0099C12.9203 10.0021 12.8865 10.0229 12.8527 10.0593C12.8214 10.0931 12.7876 10.1217 12.7798 10.1217C12.7434 10.1217 12.59 10.2985 12.6004 10.3271C12.6056 10.3427 12.6004 10.3531 12.5874 10.3505C12.5744 10.3453 12.538 10.3687 12.5016 10.4C12.4678 10.4338 12.4313 10.4598 12.4235 10.4598C12.4131 10.4598 12.3923 10.491 12.3767 10.5274C12.3585 10.5638 12.3351 10.5872 12.3247 10.5794C12.3117 10.5716 12.2805 10.6106 12.2545 10.6626C12.2259 10.7146 12.1843 10.7797 12.1609 10.8031C12.1375 10.8265 12.1115 10.8577 12.1089 10.8733C12.0907 10.9149 11.9346 10.9253 11.9008 10.8863C11.8852 10.8655 11.8592 10.8499 11.8462 10.8499C11.8254 10.8499 11.7968 10.8291 11.7136 10.7562C11.6953 10.7406 11.6563 10.7198 11.6251 10.7094C11.5939 10.699 11.5627 10.6756 11.5575 10.6574C11.5497 10.6366 11.5081 10.6132 11.4665 10.6028C11.4223 10.595 11.3677 10.5638 11.3417 10.5352C11.3182 10.5092 11.2818 10.4858 11.261 10.4858C11.2428 10.4858 11.2272 10.4728 11.2272 10.4598C11.2272 10.4442 11.209 10.4338 11.1882 10.4338C11.1674 10.4338 11.0946 10.3922 11.0296 10.3427C10.962 10.2907 10.8709 10.2335 10.8241 10.2127C10.7773 10.1945 10.7149 10.1555 10.6889 10.1295C10.6629 10.1035 10.5849 10.0567 10.5172 10.0229C10.4496 9.98905 10.395 9.95524 10.395 9.94484C10.395 9.93443 10.3456 9.90323 10.2832 9.87462C10.2234 9.84601 10.1687 9.8174 10.1609 9.807C10.1531 9.7992 10.1011 9.77059 10.0439 9.74458C9.9867 9.71598 9.90608 9.66396 9.86447 9.62235C9.82026 9.58334 9.76044 9.54953 9.72923 9.54953C9.69803 9.54953 9.66682 9.53133 9.65642 9.51052C9.63561 9.45071 9.54459 9.46371 9.52378 9.52873C9.51338 9.56254 9.50298 9.59374 9.50037 9.60155C9.49777 9.60935 9.47437 9.65356 9.44836 9.70037C9.42496 9.74979 9.40935 9.794 9.41715 9.8018C9.42496 9.8096 9.41715 9.84081 9.40155 9.86942C9.38594 9.90062 9.37034 9.94224 9.36774 9.96564C9.34433 10.1191 9.28452 10.1659 9.14148 10.1347C9.05046 10.1139 8.96463 10.0359 8.90482 9.92403C8.86841 9.85641 8.819 9.7966 8.61094 9.57034C8.57713 9.53393 8.54853 9.49492 8.54853 9.48712C8.54853 9.46371 8.32487 9.17503 8.27806 9.13342C8.25465 9.11522 8.23644 9.08921 8.23644 9.07621C8.23644 9.06321 8.22084 9.0372 8.20524 9.01899C8.11941 8.93057 8.0544 8.84475 8.0544 8.82134C8.0544 8.80574 8.03879 8.78753 8.01799 8.77973C7.99718 8.77193 7.97378 8.73812 7.96597 8.70171C7.95557 8.6679 7.93737 8.6393 7.92436 8.6393C7.90876 8.6393 7.89836 8.62109 7.89836 8.60028C7.89836 8.57948 7.88275 8.56127 7.86715 8.56127C7.84894 8.56127 7.80473 8.51706 7.76832 8.46245C7.6955 8.35582 7.6851 8.34022 7.61228 8.25179C7.58367 8.21798 7.56027 8.17377 7.56027 8.15297C7.56027 8.13476 7.54206 8.11136 7.52126 8.10356C7.50045 8.09315 7.48225 8.06975 7.48225 8.05154C7.48225 8.03074 7.46404 8.00733 7.44324 7.99953C7.42243 7.98913 7.40423 7.97092 7.40423 7.95272C7.40423 7.93711 7.36782 7.8825 7.32621 7.83308C7.20658 7.69525 7.19617 7.68225 7.19617 7.65364C7.19617 7.64063 7.16757 7.60422 7.13116 7.57042C7.09735 7.53661 7.06614 7.4976 7.06614 7.48719C7.06614 7.47679 7.01933 7.39617 6.96471 7.31035C6.87369 7.17251 6.86589 7.1439 6.88929 7.07889C6.9023 7.03728 6.9335 6.99827 6.95691 6.99046C7.00112 6.97746 7.59148 6.99567 7.76832 7.01647ZM6.74105 7.19592C6.79567 7.27394 6.85028 7.33896 6.86069 7.33896C6.87109 7.33896 6.88669 7.35976 6.89449 7.38577C6.9101 7.43258 7.06094 7.67964 7.13116 7.76807C7.15196 7.79407 7.17017 7.83048 7.17017 7.84609C7.17017 7.85909 7.20137 7.9007 7.23518 7.93451C7.27159 7.96832 7.3002 8.00993 7.3002 8.02814C7.3002 8.04894 7.33661 8.10356 7.37822 8.15037C7.42243 8.19718 7.45624 8.24919 7.45624 8.2648C7.45624 8.283 7.47445 8.30121 7.49525 8.31161C7.51606 8.31941 7.53426 8.34282 7.53426 8.36622C7.53426 8.38703 7.54466 8.40523 7.55507 8.40523C7.56807 8.40523 7.59928 8.45205 7.62789 8.50926C7.65389 8.56648 7.6929 8.61329 7.71111 8.61329C7.72671 8.61329 7.74232 8.63669 7.74232 8.6653C7.74232 8.69391 7.76052 8.72512 7.78133 8.73292C7.80213 8.74332 7.82034 8.76673 7.82034 8.78753C7.82034 8.80574 7.84894 8.84995 7.88535 8.88376C7.92176 8.91757 7.95037 8.95398 7.95037 8.96698C7.95037 8.97998 7.97638 9.01899 8.01019 9.0554C8.04399 9.09181 8.09341 9.15943 8.11941 9.20364C8.14802 9.25045 8.17923 9.28946 8.18963 9.28946C8.20004 9.28946 8.21044 9.30247 8.21044 9.31807C8.21044 9.33628 8.23644 9.37269 8.27025 9.40389C8.30146 9.4351 8.34567 9.49232 8.36648 9.53653C8.38728 9.57814 8.42369 9.63275 8.4445 9.65616C8.52772 9.74458 8.57453 9.8122 8.57453 9.83561C8.57453 9.85121 8.58494 9.86161 8.59534 9.86161C8.60834 9.86161 8.63435 9.89022 8.65255 9.92663C8.67076 9.96304 8.70197 9.99165 8.72277 9.99165C8.74098 9.99165 8.75918 10.0125 8.75918 10.0359C8.77218 10.2075 8.76958 10.2309 8.72797 10.2543C8.69937 10.2699 8.54593 10.2673 8.32487 10.2517C8.12722 10.2387 7.96337 10.2309 7.96077 10.2335C7.95557 10.2361 8.03879 10.4728 8.14282 10.7588C8.35087 11.3258 8.61354 11.9734 8.85281 12.5013C8.93603 12.686 9.00104 12.8602 8.99584 12.8836C8.98804 12.9278 8.93603 12.9304 8.35608 12.9304C7.89316 12.9304 7.71371 12.9226 7.6825 12.8966C7.58107 12.8212 6.75146 10.8317 6.58241 10.2569C6.57201 10.2205 6.48359 10.2179 6.17411 10.2517C5.92184 10.2777 5.87243 10.2647 5.81521 10.1529C5.7814 10.0931 5.7632 9.78359 5.79441 9.78359C5.80221 9.78359 5.80741 9.74198 5.81001 9.69257C5.81261 9.56254 5.84382 9.22965 5.85422 9.21405C5.85942 9.20624 5.87243 9.13863 5.88283 9.06841C5.89323 8.99559 5.90624 8.91497 5.91144 8.88636C5.91664 8.85775 5.92704 8.79274 5.93744 8.74332C5.94525 8.69391 5.95825 8.63409 5.96605 8.61329C5.97645 8.59248 5.97906 8.56648 5.97906 8.55347C5.96865 8.51446 6.08568 8.07755 6.1325 7.97092C6.1585 7.9085 6.18191 7.84089 6.18191 7.81748C6.18191 7.79667 6.19491 7.75506 6.21052 7.72646C6.22612 7.69785 6.24172 7.65104 6.24693 7.61983C6.25473 7.59122 6.28073 7.5184 6.30674 7.45859C6.33535 7.40137 6.37436 7.31295 6.39256 7.26614C6.41337 7.22192 6.43677 7.18291 6.44718 7.18291C6.46018 7.18291 6.46798 7.16731 6.46798 7.14911C6.46798 7.09709 6.5226 7.05288 6.58761 7.05288C6.62662 7.05288 6.67344 7.09709 6.74105 7.19592Z" fill="black"/>
<path d="M20.0695 2.89439C19.0267 3.01402 18.3037 3.43793 17.9656 4.12711C17.8563 4.35597 17.8069 4.55622 17.7887 4.86831C17.7549 5.49247 17.9318 5.984 18.3375 6.3897C18.6574 6.70959 18.9434 6.87863 19.7678 7.23492C20.275 7.45598 20.5767 7.62763 20.7535 7.80187C20.9147 7.95791 20.9824 8.09055 20.998 8.2778C21.0188 8.48065 20.9225 8.6809 20.7483 8.81094C20.3712 9.08921 19.5754 9.13082 18.868 8.90976C18.5975 8.82394 18.184 8.61589 17.9708 8.45204L17.8069 8.32981V9.13082V9.93443L18.002 10.0151C18.907 10.3921 20.431 10.4312 21.3595 10.1035C21.9446 9.89542 22.3893 9.48971 22.5896 8.98258C22.7144 8.6679 22.756 8.13996 22.6858 7.75506C22.5428 6.96705 22.007 6.46252 20.7587 5.93459C20.2334 5.71353 19.9395 5.54448 19.7418 5.34943C19.6092 5.2194 19.5468 5.13878 19.526 5.06336C19.4064 4.62644 19.7028 4.29096 20.3088 4.17393C20.8497 4.0725 21.7001 4.22594 22.2151 4.51721L22.4101 4.62904V3.88265V3.13365L22.1839 3.06604C21.5909 2.88919 20.7249 2.81897 20.0695 2.89439Z" fill="black"/>
<path d="M23.9185 6.59777V10.1997H26.0511H28.1836V9.53653V8.87336H26.8573H25.5309V5.93459V2.99583H24.7247H23.9185V6.59777Z" fill="black"/>
<path d="M20.7977 12.5403V13.5806H21.0188H21.2398V12.5403V11.5001H21.0188H20.7977V12.5403Z" fill="black"/>
<path d="M24.4777 11.5313C24.3399 11.6119 24.3217 11.7523 24.4361 11.8667C24.4933 11.9214 24.5375 11.9422 24.6077 11.9422C24.7846 11.9422 24.9198 11.7289 24.821 11.6015C24.7482 11.5053 24.5817 11.4714 24.4777 11.5313Z" fill="black"/>
<path d="M31.5385 12.5403V13.5806H31.7596H31.9806V13.5026V13.422L32.0847 13.5052C32.2693 13.6534 32.5684 13.6352 32.7582 13.461C33.0183 13.2269 33.0729 12.6496 32.8623 12.3583C32.6802 12.106 32.3057 12.0774 32.0795 12.2985L31.9806 12.3947V11.9474V11.5001H31.7596H31.5385V12.5403ZM32.4201 12.5299C32.597 12.6548 32.597 13.0527 32.4201 13.2009C32.3031 13.2997 32.1809 13.2919 32.0691 13.1801C31.9832 13.0943 31.9806 13.0839 31.9806 12.8992C31.9806 12.6157 32.0691 12.4935 32.2797 12.4909C32.3239 12.4883 32.3863 12.5065 32.4201 12.5299Z" fill="black"/>
<path d="M17.9188 11.6145C17.5573 11.7055 17.3778 11.989 17.4689 12.3167C17.5157 12.4857 17.6483 12.6053 17.95 12.7484C18.2439 12.8888 18.3349 12.9668 18.3219 13.0735C18.2959 13.2997 17.8355 13.3283 17.5365 13.1255L17.4402 13.0605L17.448 13.2893L17.4559 13.5156L17.6379 13.5624C17.9968 13.656 18.4467 13.591 18.6366 13.4167C18.7926 13.2711 18.8394 12.9876 18.7406 12.7796C18.673 12.6391 18.5455 12.5455 18.2309 12.3973C17.9032 12.2438 17.8277 12.1086 17.9968 11.9838C18.1034 11.9058 18.4181 11.9084 18.5949 11.9864L18.7172 12.0436V11.8485C18.7172 11.6613 18.7146 11.6535 18.647 11.6275C18.5325 11.5833 18.0722 11.5755 17.9188 11.6145Z" fill="black"/>
<path d="M28.6518 12.5923V13.5806H29.2239H29.7961V13.3985V13.2165H29.445H29.0939V12.4103V11.6041H28.8729H28.6518V12.5923Z" fill="black"/>
<path d="M23.6013 11.8199L23.3984 11.8771V12.0254V12.1762H23.2814H23.1644V12.3323V12.4883H23.2788H23.3932L23.4036 12.9148C23.4114 13.3803 23.4218 13.4141 23.5883 13.539C23.6819 13.6092 23.9264 13.6248 24.0564 13.5728C24.1526 13.5312 24.1526 13.5312 24.1526 13.3725C24.1526 13.2243 24.15 13.2165 24.1032 13.2425C24.0252 13.2841 23.9498 13.2737 23.8926 13.2165C23.8457 13.1697 23.8405 13.1307 23.8405 12.8264V12.4883H23.9966H24.1526V12.3323V12.1762H23.9966H23.8405V11.9682C23.8405 11.8537 23.8327 11.7601 23.8223 11.7627C23.8093 11.7653 23.7105 11.7913 23.6013 11.8199Z" fill="black"/>
<path d="M19.5364 12.1736C19.1801 12.262 18.9772 12.5637 19.011 12.959C19.0474 13.3881 19.3595 13.6352 19.8251 13.5988C20.275 13.565 20.5376 13.2581 20.5064 12.803C20.4778 12.3999 20.1839 12.145 19.76 12.1528C19.6794 12.1554 19.5806 12.1632 19.5364 12.1736ZM19.9135 12.5221C20.0487 12.5897 20.1059 12.8368 20.0409 13.0683C19.9785 13.2919 19.6378 13.3413 19.5078 13.1463C19.4532 13.0605 19.4323 12.829 19.4688 12.7146C19.5338 12.5247 19.7392 12.4337 19.9135 12.5221Z" fill="black"/>
<path d="M25.622 12.1736C25.2657 12.262 25.0629 12.5637 25.0967 12.959C25.1331 13.3881 25.4452 13.6352 25.9107 13.5988C26.3606 13.565 26.6233 13.2581 26.5921 12.803C26.5635 12.3999 26.2696 12.145 25.8457 12.1528C25.765 12.1554 25.6662 12.1632 25.622 12.1736ZM25.9991 12.5221C26.1343 12.5897 26.1916 12.8368 26.1265 13.0683C26.0641 13.2919 25.7234 13.3413 25.5934 13.1463C25.5388 13.0605 25.518 12.829 25.5544 12.7146C25.6194 12.5247 25.8249 12.4337 25.9991 12.5221Z" fill="black"/>
<path d="M27.5959 12.1788C27.5491 12.1918 27.4711 12.249 27.419 12.3063L27.3254 12.4103V12.2933V12.1762H27.1044H26.8833V12.8784V13.5806H27.1044H27.3254V13.1541C27.3254 12.92 27.3384 12.6938 27.354 12.6496C27.4112 12.4857 27.6063 12.4363 27.7181 12.5559C27.7779 12.6209 27.7805 12.6366 27.7883 13.1021L27.7961 13.5806H28.0172H28.2383L28.2305 13.0267C28.2227 12.5091 28.22 12.4675 28.1628 12.3635C28.0666 12.184 27.8351 12.1086 27.5959 12.1788Z" fill="black"/>
<path d="M30.3812 12.1684C30.3526 12.1736 30.2668 12.197 30.194 12.2178L30.0561 12.2568V12.4207V12.5845L30.1862 12.5195C30.2642 12.4805 30.3786 12.4519 30.4826 12.4441C30.6361 12.4311 30.6543 12.4337 30.7167 12.4961C30.7531 12.5325 30.7843 12.5871 30.7843 12.6157C30.7843 12.6573 30.7531 12.6677 30.5581 12.6963C30.2668 12.7353 30.1784 12.764 30.0769 12.8472C29.9261 12.9746 29.8845 13.1879 29.9755 13.3881C30.0639 13.5832 30.337 13.6612 30.5659 13.5572C30.6231 13.5312 30.6959 13.4765 30.7271 13.4375L30.7843 13.3647V13.4739V13.5806H30.9924H31.2004V13.1098C31.2004 12.842 31.1874 12.5897 31.1692 12.5221C31.1302 12.3635 30.9872 12.2204 30.8285 12.1814C30.7115 12.1502 30.4852 12.145 30.3812 12.1684ZM30.7843 13.0084C30.7843 13.1775 30.6673 13.2945 30.4983 13.2945C30.3448 13.2945 30.2616 13.1203 30.3656 13.024C30.4098 12.9824 30.5763 12.9408 30.7271 12.933C30.7739 12.9304 30.7843 12.9434 30.7843 13.0084Z" fill="black"/>
<path d="M21.5519 12.6652C21.5519 13.2139 21.5805 13.3673 21.7002 13.4818C21.7912 13.5676 21.89 13.6066 22.0201 13.6066C22.1605 13.6066 22.2515 13.5676 22.366 13.4558L22.4622 13.3621V13.4714V13.5806H22.6832H22.9043V12.8784V12.1762H22.6832H22.4622V12.6183C22.4622 13.0891 22.4414 13.1827 22.3347 13.2425C22.2697 13.2763 22.1605 13.2763 22.0981 13.2425C22.0149 13.1983 21.9941 13.0683 21.9941 12.6157V12.1762H21.773H21.5519V12.6652Z" fill="black"/>
<path d="M24.3867 12.8784V13.5806H24.6077H24.8288V12.8784V12.1762H24.6077H24.3867V12.8784Z" fill="black"/>
</mask>
<g mask="url(#mask0_1094_135)">
<rect x="1.00067" y="0.628693" width="32.0024" height="14.9921" fill="white"/>
</g>
</svg>
