<svg width="24" height="14" viewBox="0 0 24 14" fill="none" xmlns="http://www.w3.org/2000/svg">
<path d="M11.276 0.760396L0.656013 11.9064C0.478723 12.0924 0.379822 12.3395 0.379822 12.5964C0.379822 12.8533 0.478723 13.1004 0.656013 13.2864L0.668013 13.2984C0.753959 13.3889 0.857412 13.4609 0.972078 13.5101C1.08674 13.5594 1.21023 13.5847 1.33501 13.5847C1.4598 13.5847 1.58328 13.5594 1.69795 13.5101C1.81261 13.4609 1.91607 13.3889 2.00201 13.2984L12.002 2.8024L21.998 13.2984C22.084 13.3889 22.1874 13.4609 22.3021 13.5101C22.4167 13.5594 22.5402 13.5847 22.665 13.5847C22.7898 13.5847 22.9133 13.5594 23.0279 13.5101C23.1426 13.4609 23.2461 13.3889 23.332 13.2984L23.344 13.2864C23.5213 13.1004 23.6202 12.8533 23.6202 12.5964C23.6202 12.3395 23.5213 12.0924 23.344 11.9064L12.724 0.760396C12.6306 0.662371 12.5183 0.584333 12.3938 0.531012C12.2694 0.47769 12.1354 0.450195 12 0.450195C11.8646 0.450195 11.7306 0.47769 11.6062 0.531012C11.4817 0.584333 11.3694 0.662371 11.276 0.760396Z" fill="white"/>
</svg>
